<?xml version="1.0" encoding="UTF-8" standalone="no"?>
<svg
   xmlns:dc="http://purl.org/dc/elements/1.1/"
   xmlns:cc="http://creativecommons.org/ns#"
   xmlns:rdf="http://www.w3.org/1999/02/22-rdf-syntax-ns#"
   xmlns:svg="http://www.w3.org/2000/svg"
   xmlns="http://www.w3.org/2000/svg"
   xmlns:sodipodi="http://sodipodi.sourceforge.net/DTD/sodipodi-0.dtd"
   xmlns:inkscape="http://www.inkscape.org/namespaces/inkscape"
   aria-hidden="true"
   focusable="false"
   data-prefix="fas"
   data-icon="thumbs-up"
   class="svg-inline--fa fa-thumbs-up fa-w-16"
   role="img"
   viewBox="0 0 512 512"
   version="1.1"
   id="svg4"
   sodipodi:docname="decline.svg"
   inkscape:version="0.92.3 (2405546, 2018-03-11)">
  <metadata
     id="metadata10">
    <rdf:RDF>
      <cc:Work
         rdf:about="">
        <dc:format>image/svg+xml</dc:format>
        <dc:type
           rdf:resource="http://purl.org/dc/dcmitype/StillImage" />
      </cc:Work>
    </rdf:RDF>
  </metadata>
  <defs
     id="defs8" />
  <sodipodi:namedview
     pagecolor="#ffffff"
     bordercolor="#666666"
     borderopacity="1"
     objecttolerance="10"
     gridtolerance="10"
     guidetolerance="10"
     inkscape:pageopacity="0"
     inkscape:pageshadow="2"
     inkscape:window-width="810"
     inkscape:window-height="480"
     id="namedview6"
     showgrid="false"
     inkscape:zoom="0.23046875"
     inkscape:cx="411.36752"
     inkscape:cy="288.36628"
     inkscape:window-x="0"
     inkscape:window-y="27"
     inkscape:window-maximized="0"
     inkscape:current-layer="svg4" />
  <path
     d="M 104,224 H 24 c -13.255,0 -24.07312992,10.7452 -24,24 l 1.0847458,196.61017 c 0.07313,13.2548 10.7450002,24 24.0000002,24 h 80.000004 c 13.255,0 24.07313,-10.7452 24,-24 L 128,248 c -0.0731,-13.2548 -10.745,-24 -24,-24 z M 384,81.452 c 0,42.416 -25.97,66.208 -33.277,94.548 h 101.723 c 33.397,0 59.397,27.746 59.553,58.098 0.084,17.938 -7.546,37.249 -19.439,49.197 l -0.11,0.11 c 9.836,23.337 8.237,56.037 -9.308,79.469 8.681,25.895 -0.069,57.704 -16.382,74.757 4.298,17.598 2.244,32.575 -6.148,44.632 C 440.202,511.587 389.616,512 346.839,512 l -2.845,-10e-4 C 295.707,511.982 256.188,494.401 224.434,480.274 208.477,473.175 187.613,464.387 171.783,464.096 165.243,463.976 160,458.639 160,452.098 v -213.77 c 0,-3.2 1.282,-6.271 3.558,-8.521 39.614,-39.144 56.648,-80.587 89.117,-113.111 C 267.479,101.864 272.863,79.46 278.068,57.794 282.515,39.293 291.817,0 312,0 c 24,0 72,8 72,81.452 z"
     id="path2"
     inkscape:connector-curvature="0"
     style="fill:#a217ff"
     sodipodi:nodetypes="sssssssssscscccccccsccsscccss" />
</svg>
