<?xml version="1.0" encoding="UTF-8" standalone="no"?>
<svg
   xmlns:dc="http://purl.org/dc/elements/1.1/"
   xmlns:cc="http://creativecommons.org/ns#"
   xmlns:rdf="http://www.w3.org/1999/02/22-rdf-syntax-ns#"
   xmlns:svg="http://www.w3.org/2000/svg"
   xmlns="http://www.w3.org/2000/svg"
   xmlns:sodipodi="http://sodipodi.sourceforge.net/DTD/sodipodi-0.dtd"
   xmlns:inkscape="http://www.inkscape.org/namespaces/inkscape"
   aria-hidden="true"
   focusable="false"
   data-prefix="fas"
   data-icon="thumbs-down"
   class="svg-inline--fa fa-thumbs-down fa-w-16"
   role="img"
   viewBox="0 0 512 512"
   version="1.1"
   id="svg4"
   sodipodi:docname="approve.svg"
   inkscape:version="0.92.3 (2405546, 2018-03-11)">
  <metadata
     id="metadata10">
    <rdf:RDF>
      <cc:Work
         rdf:about="">
        <dc:format>image/svg+xml</dc:format>
        <dc:type
           rdf:resource="http://purl.org/dc/dcmitype/StillImage" />
      </cc:Work>
    </rdf:RDF>
  </metadata>
  <defs
     id="defs8" />
  <sodipodi:namedview
     pagecolor="#ffffff"
     bordercolor="#666666"
     borderopacity="1"
     objecttolerance="10"
     gridtolerance="10"
     guidetolerance="10"
     inkscape:pageopacity="0"
     inkscape:pageshadow="2"
     inkscape:window-width="1920"
     inkscape:window-height="1016"
     id="namedview6"
     showgrid="false"
     inkscape:zoom="0.921875"
     inkscape:cx="-112.57023"
     inkscape:cy="297.19026"
     inkscape:window-x="0"
     inkscape:window-y="27"
     inkscape:window-maximized="1"
     inkscape:current-layer="svg4" />
  <path
     d="M 0.54237288,68.474576 -0.76703109,266.85282 c -0.0874883,13.25471 10.74499999,24 24.00000009,24 h 80.000001 c 13.255,0 23.91251,-10.74529 24,-24 l 1.3094,-198.378244 c 0.0875,-13.254711 -10.745,-24 -24,-24 H 24.542373 c -13.255,0 -23.91251184,10.745289 -24.00000012,24 z M 312,512 c -20.183,0 -29.485,-39.293 -33.931,-57.795 -5.206,-21.666 -10.589,-44.07 -25.393,-58.902 -32.469,-32.524 -49.503,-73.967 -89.117,-113.111 -2.27697,-2.25078 -3.55827,-5.31934 -3.558,-8.521 V 59.901 c 0,-6.541 5.243,-11.878 11.783,-11.998 15.831,-0.29 36.694,-9.079 52.651,-16.178 C 256.189,17.598 295.709,0.017 343.995,0 h 2.844 c 42.777,0 93.363,0.413 113.774,29.737 8.392,12.057 10.446,27.034 6.148,44.632 16.312,17.053 25.063,48.863 16.382,74.757 17.544,23.432 19.143,56.132 9.308,79.469 l 0.11,0.11 C 504.454,240.654 512.084,259.964 512,277.902 511.844,308.254 485.843,336 452.447,336 H 350.723 C 358.03,364.34 384,388.132 384,430.548 384,504 336,512 312,512 Z"
     id="path2"
     inkscape:connector-curvature="0"
     style="fill:#a217ff"
     sodipodi:nodetypes="ssssssssssccccscccsccccccscss" />
</svg>
