<?xml version="1.0" encoding="UTF-8" standalone="no"?>
<!-- Generator: Adobe Illustrator 23.1.1, SVG Export Plug-In . SVG Version: 6.00 Build 0)  -->

<svg
   xmlns:dc="http://purl.org/dc/elements/1.1/"
   xmlns:cc="http://creativecommons.org/ns#"
   xmlns:rdf="http://www.w3.org/1999/02/22-rdf-syntax-ns#"
   xmlns:svg="http://www.w3.org/2000/svg"
   xmlns="http://www.w3.org/2000/svg"
   xmlns:sodipodi="http://sodipodi.sourceforge.net/DTD/sodipodi-0.dtd"
   xmlns:inkscape="http://www.inkscape.org/namespaces/inkscape"
   version="1.1"
   id="bca70d0a-57dd-451b-a82c-bb6927f27458"
   x="0px"
   y="0px"
   viewBox="0 0 557.63232 495.69806"
   xml:space="preserve"
   sodipodi:docname="grow.svg"
   inkscape:version="0.92.3 (2405546, 2018-03-11)"
   width="557.63232"
   height="495.69806"><metadata
   id="metadata65"><rdf:RDF><cc:Work
       rdf:about=""><dc:format>image/svg+xml</dc:format><dc:type
         rdf:resource="http://purl.org/dc/dcmitype/StillImage" /><dc:title>predictive analytics</dc:title></cc:Work></rdf:RDF></metadata><defs
   id="defs63" /><sodipodi:namedview
   pagecolor="#ffffff"
   bordercolor="#666666"
   borderopacity="1"
   objecttolerance="10"
   gridtolerance="10"
   guidetolerance="10"
   inkscape:pageopacity="0"
   inkscape:pageshadow="2"
   inkscape:window-width="1920"
   inkscape:window-height="1016"
   id="namedview61"
   showgrid="false"
   inkscape:zoom="1.4590417"
   inkscape:cx="250.69417"
   inkscape:cy="232.36536"
   inkscape:window-x="0"
   inkscape:window-y="27"
   inkscape:window-maximized="1"
   inkscape:current-layer="bca70d0a-57dd-451b-a82c-bb6927f27458"
   fit-margin-top="0"
   fit-margin-left="0"
   fit-margin-right="0"
   fit-margin-bottom="0" />
<style
   type="text/css"
   id="style2">
	.st0{fill:#F2F2F2;}
	.st1{fill:#3F3D56;}
	.st2{opacity:0.3;fill:#6C63FF;enable-background:new    ;}
	.st3{fill:#A217FF;}
	.st4{opacity:0.4;fill:#A217FF;enable-background:new    ;}
	.st5{fill:#2F2E41;}
	.st6{fill:#FFB8B8;}
	.st7{fill:#D0CDE1;}
</style>
<title
   id="title4">predictive analytics</title>

<rect
   x="0"
   y="0"
   class="st1"
   width="557.63232"
   height="254.56248"
   id="rect8"
   style="fill:#3f3d56;stroke-width:0.90463114" />
<rect
   x="78.239243"
   y="91.46991"
   class="st2"
   width="411.58575"
   height="0.86292374"
   id="rect10"
   style="opacity:0.3;fill:#6c63ff;stroke-width:0.90463114;enable-background:new" />
<rect
   x="78.713409"
   y="113.043"
   class="st2"
   width="411.58575"
   height="0.86292374"
   id="rect12"
   style="opacity:0.3;fill:#6c63ff;stroke-width:0.90463114;enable-background:new" />
<rect
   x="78.713409"
   y="156.18918"
   class="st2"
   width="411.58575"
   height="0.86292374"
   id="rect14"
   style="opacity:0.3;fill:#6c63ff;stroke-width:0.90463114;enable-background:new" />
<rect
   x="78.713409"
   y="175.17352"
   class="st2"
   width="411.58575"
   height="0.86292374"
   id="rect16"
   style="opacity:0.3;fill:#6c63ff;stroke-width:0.90463114;enable-background:new" />
<rect
   x="78.713409"
   y="134.61609"
   class="st2"
   width="411.58575"
   height="0.86292374"
   id="rect18"
   style="opacity:0.3;fill:#6c63ff;stroke-width:0.90463114;enable-background:new" />
<ellipse
   class="st1"
   cx="424.28091"
   cy="481.02835"
   rx="92.777367"
   ry="14.669703"
   id="ellipse20"
   style="fill:#3f3d56;stroke-width:0.65607089" />
<polygon
   class="st3"
   points="452.1,181.8 513.1,222.8 608.8,168.4 609.8,170.1 513,225.2 452,184.2 396.9,217.2 377.1,200.4 331.2,251.3 274.1,210.3 210.7,270.7 209.3,269.3 273.9,207.7 330.9,248.7 376.9,197.6 397.1,214.8 "
   id="polygon22"
   transform="matrix(0.94835429,0,0,0.86292368,-109.72459,-57.815895)"
   style="fill:#a217ff" />


<ellipse
   class="st4"
   cx="529.65588"
   cy="374.07742"
   id="circle28"
   rx="11.854429"
   ry="10.786547"
   style="opacity:0.4;fill:#a217ff;stroke-width:0.90463114;enable-background:new" />
<ellipse
   class="st4"
   cx="327.65643"
   cy="430.16751"
   id="circle30"
   rx="9.009366"
   ry="8.1977758"
   style="opacity:0.4;fill:#a217ff;stroke-width:0.90463114;enable-background:new" />
<ellipse
   class="st4"
   cx="297.30908"
   cy="321.43909"
   id="circle32"
   rx="11.854429"
   ry="10.786547"
   style="opacity:0.4;fill:#a217ff;stroke-width:0.90463114;enable-background:new" />
<ellipse
   class="st3"
   cx="460.99426"
   cy="92.586746"
   id="circle34"
   rx="10.435266"
   ry="11.218009"
   style="fill:#a217ff;stroke-width:0.83227402" />
<path
   class="st5"
   d="m 393.16503,295.80529 -8.82984,1.03551 c 0,0 -3.93329,18.98432 0,44.35427 3.93329,25.36997 8.82984,50.73992 8.82984,50.73992 0,0 3.93329,82.40922 5.8598,83.44473 1.92651,1.0355 19.66647,7.42114 20.62972,1.0355 0.96326,-6.38563 0.96326,-151.09794 0.96326,-151.09794 l 13.72639,69.72424 c 0,0 1.92651,87.67305 5.8598,87.67305 3.93329,0 16.69642,-1.03551 16.69642,-8.45666 0,-7.42114 2.97004,-104.58635 2.97004,-104.58635 0,0 -0.96325,-71.88155 -4.89655,-73.95256 -3.93328,-2.07102 -61.80888,0.0863 -61.80888,0.0863 z"
   id="path36"
   inkscape:connector-curvature="0"
   style="fill:#2f2e41;stroke-width:0.83227402" />
<path
   class="st5"
   d="m 401.03162,472.27319 c 0,0 -8.82984,-1.03551 -10.83663,0 -2.00679,1.03551 -4.89655,8.45666 0,12.68498 4.89655,4.22832 17.65968,10.52767 21.59297,10.52767 2.72923,-0.17259 5.37819,-0.86292 7.86659,-2.07102 L 417.72804,475.466 Z"
   id="path38"
   inkscape:connector-curvature="0"
   style="fill:#2f2e41;stroke-width:0.83227402" />
<path
   class="st5"
   d="m 440.36455,477.53702 0.96325,14.756 c 0,0 12.76313,2.07102 13.72638,0 0.96327,-2.07101 10.83663,-7.42114 11.79989,-8.45665 0.96326,-1.03551 1.92651,-12.68498 -3.9333,-13.72049 -5.8598,-1.03551 -7.86659,2.07101 -7.86659,2.07101 z"
   id="path40"
   inkscape:connector-curvature="0"
   style="fill:#2f2e41;stroke-width:0.83227402" />
<path
   class="st6"
   d="m 357.7654,207.01044 c 0,0 -23.59976,24.33445 -20.62973,37.01942 2.97004,12.68499 26.56979,49.70441 26.56979,49.70441 0,0 22.63651,12.68498 25.52628,0 2.88976,-12.68497 -15.73318,-9.49216 -15.73318,-9.49216 l -14.76991,-38.05494 16.69642,-25.36995 z"
   id="path42"
   inkscape:connector-curvature="0"
   style="fill:#ffb8b8;stroke-width:0.83227402" />
<path
   class="st6"
   d="m 463.16159,170.0773 c 0,0 21.51271,-14.84229 21.03107,-25.02478 -0.48162,-10.18251 -13.48557,-42.36956 -13.48557,-42.36956 0,0 -10.11419,-22.608611 -14.12774,-13.375321 -4.01357,9.23329 5.2979,19.070621 5.2979,19.070621 l 6.02034,31.583 -16.37534,16.74072 z"
   id="path44"
   inkscape:connector-curvature="0"
   style="fill:#ffb8b8;stroke-width:0.83227402" />
<ellipse
   class="st6"
   cx="409.86145"
   cy="129.86504"
   id="circle46"
   rx="17.659683"
   ry="18.984322"
   style="fill:#ffb8b8;stroke-width:0.83227402" />
<path
   class="st6"
   d="m 401.03162,141.51453 2.97004,20.10612 21.59297,-4.22832 c 0,0 -0.96326,-20.10613 -0.96326,-22.17714 0,-2.07102 -23.59975,6.29934 -23.59975,6.29934 z"
   id="path48"
   inkscape:connector-curvature="0"
   style="fill:#ffb8b8;stroke-width:0.83227402" />
<path
   class="st7"
   d="m 400.06836,161.62065 c 0,0 24.56301,-6.29934 27.53305,-4.22832 2.97004,2.07101 17.65968,4.22832 17.65968,4.22832 l 16.69642,27.44098 -4.89654,34.86211 c 0,0 -0.96326,56.00375 0.96326,65.49591 1.92651,9.49216 12.76313,10.52768 -9.7931,12.68498 -22.55623,2.15731 -26.5698,-1.03551 -42.30296,3.19282 -15.73318,4.22832 -28.49631,-2.07101 -24.56301,-6.29934 3.93328,-4.22833 10.83662,-71.88155 2.97003,-78.18089 -7.86658,-6.29935 -10.83663,-39.09044 -10.83663,-39.09044 0,0 26.5698,-14.84229 26.5698,-20.10613 z"
   id="path50"
   inkscape:connector-curvature="0"
   style="fill:#d0cde1;stroke-width:0.83227402" />
<path
   class="st7"
   d="m 442.29105,164.72718 2.97004,-3.19282 5.8598,-6.29935 c 0,0 19.18484,8.97441 18.22159,12.16723 -0.96326,3.19282 -7.38497,21.65939 -7.38497,21.65939 l -8.82983,3.19281 z"
   id="path52"
   inkscape:connector-curvature="0"
   style="fill:#d0cde1;stroke-width:0.83227402" />
<path
   class="st7"
   d="m 385.29844,183.79779 -11.79988,-2.07101 c 0,0 -8.82983,10.52766 -11.79987,14.75599 -2.97004,4.22833 -8.82984,14.75599 -8.82984,14.75599 l 20.62971,15.8778 15.73318,-17.94881 z"
   id="path54"
   inkscape:connector-curvature="0"
   style="fill:#d0cde1;stroke-width:0.83227402" />
<path
   class="st5"
   d="m 416.04234,106.825 -0.16054,-1.55327 c -1.20407,0 -2.40814,0.17259 -3.53193,0.60405 -0.0802,-0.94922 -0.0802,-1.81214 0.24081,-2.76135 -1.1238,0.34516 -2.24759,0.86291 -3.29113,1.55326 l -0.72244,-2.76136 -9.79309,5.17754 c -3.53194,1.89843 -7.22442,3.88315 -9.2312,7.59373 -2.24759,4.05574 -1.84623,9.23328 -0.32108,13.63419 1.52515,4.40092 4.09384,8.28407 6.10061,12.5124 0.80272,1.81214 1.6857,3.53798 2.80949,5.09125 3.69249,5.00495 10.91691,5.95417 16.13454,2.93394 2.00677,-1.03551 3.61221,-2.76136 4.49519,-4.91867 0.40135,-1.38067 0.64217,-2.67506 0.88298,-4.14203 0.64217,-2.84765 1.36462,-8.71553 3.53194,-10.52767 0.96326,-0.77663 2.80949,1.81214 3.61221,0.86292 2.00678,-2.50247 1.60543,-6.38563 0.32108,-9.40586 -1.20407,-3.02024 -2.56868,-5.95418 -4.1741,-8.80183 -0.72245,-1.0355 -6.90334,-5.26383 -6.90334,-5.09124 z"
   id="path56"
   inkscape:connector-curvature="0"
   style="fill:#2f2e41;stroke-width:0.83227402" />

</svg>