<?xml version="1.0" encoding="UTF-8" standalone="no"?>
<!-- Generator: Adobe Illustrator 23.1.1, SVG Export Plug-In . SVG Version: 6.00 Build 0)  -->

<svg
   xmlns:dc="http://purl.org/dc/elements/1.1/"
   xmlns:cc="http://creativecommons.org/ns#"
   xmlns:rdf="http://www.w3.org/1999/02/22-rdf-syntax-ns#"
   xmlns:svg="http://www.w3.org/2000/svg"
   xmlns="http://www.w3.org/2000/svg"
   xmlns:sodipodi="http://sodipodi.sourceforge.net/DTD/sodipodi-0.dtd"
   xmlns:inkscape="http://www.inkscape.org/namespaces/inkscape"
   version="1.1"
   id="dee5f091-7f82-4933-86d1-b20eda2269df"
   x="0px"
   y="0px"
   viewBox="0 0 946.00001 700.94928"
   xml:space="preserve"
   sodipodi:docname="profile.svg"
   inkscape:version="0.92.3 (2405546, 2018-03-11)"
   width="946"
   height="700.94928"><metadata
   id="metadata204"><rdf:RDF><cc:Work
       rdf:about=""><dc:format>image/svg+xml</dc:format><dc:type
         rdf:resource="http://purl.org/dc/dcmitype/StillImage" /><dc:title>swipe profiles1</dc:title></cc:Work></rdf:RDF></metadata><defs
   id="defs202" /><sodipodi:namedview
   pagecolor="#ffffff"
   bordercolor="#666666"
   borderopacity="1"
   objecttolerance="10"
   gridtolerance="10"
   guidetolerance="10"
   inkscape:pageopacity="0"
   inkscape:pageshadow="2"
   inkscape:window-width="1920"
   inkscape:window-height="1016"
   id="namedview200"
   showgrid="false"
   inkscape:zoom="0.86241447"
   inkscape:cx="527.29257"
   inkscape:cy="269.21924"
   inkscape:window-x="0"
   inkscape:window-y="27"
   inkscape:window-maximized="1"
   inkscape:current-layer="dee5f091-7f82-4933-86d1-b20eda2269df"
   fit-margin-top="0"
   fit-margin-left="0"
   fit-margin-right="0"
   fit-margin-bottom="0" />
<style
   type="text/css"
   id="style2">
	.st0{opacity:0.5;}
	.st1{fill:url(#SVGID_1_);}
	.st2{fill:#FFFFFF;}
	.st3{opacity:0.3;fill:#3F3E54;enable-background:new    ;}
	.st4{fill:url(#SVGID_2_);}
	.st5{fill:#F5F5F5;}
	.st6{fill:#DBDBDB;}
	.st7{fill:url(#SVGID_3_);}
	.st8{fill:url(#SVGID_4_);}
	.st9{fill:url(#SVGID_5_);}
	.st10{opacity:0.4;fill:#3F3E54;enable-background:new    ;}
	.st11{fill:url(#SVGID_6_);}
	.st12{fill:#FDA57D;}
	.st13{fill:#333333;}
	.st14{opacity:0.1;enable-background:new    ;}
	.st15{fill:#A217FF;}
	.st16{fill:#FDB797;}
	.st17{fill:#BE7C5E;}
</style>
<title
   id="title4">swipe profiles1</title>
<g
   class="st0"
   id="g15"
   style="opacity:0.5"
   transform="translate(0.1)">
	
		<linearGradient
   id="SVGID_1_"
   gradientUnits="userSpaceOnUse"
   x1="762.88867"
   y1="663.08447"
   x2="1047.3955"
   y2="-8.7405005"
   gradientTransform="matrix(1,-0.00244346,0.00244346,1,-140.75,0.0597837)">
		<stop
   offset="0"
   style="stop-color:#808080;stop-opacity:0.25"
   id="stop6" />
		<stop
   offset="0.54"
   style="stop-color:#808080;stop-opacity:0.12"
   id="stop8" />
		<stop
   offset="1"
   style="stop-color:#808080;stop-opacity:0.1"
   id="stop10" />
	</linearGradient>
	<path
   class="st1"
   d="M 930.6,0 598.1,0.8 c -7.5,0 -13.6,6.1 -13.6,13.7 v 0 l 1.5,621.9 c 0,7.5 6.2,13.6 13.7,13.6 0,0 0,0 0.1,0 l 332.5,-0.8 c 7.5,0 13.6,-6.1 13.6,-13.7 v 0 L 944.4,13.6 C 944.2,6.1 938.1,0 930.6,0 Z"
   id="path13"
   inkscape:connector-curvature="0"
   style="fill:url(#SVGID_1_)" />
</g>
<path
   class="st2"
   d="M 603,9.3 925.8,8.5 c 7.5,0 13.7,6.1 13.7,13.6 l 1.5,604.7 c 0,7.5 -6.1,13.7 -13.6,13.7 l -322.8,0.8 c -7.5,0 -13.7,-6.1 -13.7,-13.6 L 589.4,23 c 0,-7.6 6.1,-13.7 13.6,-13.7 z"
   id="path17"
   inkscape:connector-curvature="0"
   style="fill:#ffffff" />
<path
   class="st3"
   d="m 852.4,24.5 c -2.1,13.9 -13.9,24.1 -27.9,24.2 L 703.6,49 c -14,0 -25.9,-10.2 -28,-24.1 l -64,0.2 c -7.3,0 -13.3,6 -13.3,13.3 v 0 l 1.4,573.7 c 0,7.3 6,13.3 13.3,13.3 v 0 l 306,-0.7 c 7.3,0 13.3,-6 13.3,-13.3 v 0 L 930.9,37.7 c 0,-7.3 -6,-13.3 -13.3,-13.3 v 0 z"
   id="path19"
   inkscape:connector-curvature="0"
   style="opacity:0.3;fill:#3f3e54;enable-background:new" />
<g
   class="st0"
   id="g30"
   style="opacity:0.5"
   transform="translate(0.1)">
	
		<linearGradient
   id="SVGID_2_"
   gradientUnits="userSpaceOnUse"
   x1="894.52002"
   y1="272.6911"
   x2="894.52002"
   y2="68.190002"
   gradientTransform="translate(-127.12,1.01)">
		<stop
   offset="0"
   style="stop-color:#808080;stop-opacity:0.25"
   id="stop21" />
		<stop
   offset="0.54"
   style="stop-color:#808080;stop-opacity:0.12"
   id="stop23" />
		<stop
   offset="1"
   style="stop-color:#808080;stop-opacity:0.1"
   id="stop25" />
	</linearGradient>
	<path
   class="st4"
   d="m 869.4,171.2 c 0,-56.3 -45.7,-102 -102,-102 -56.3,0 -102,45.7 -102,102 0,34 16.9,65.7 45.1,84.6 l 0.1,0.4 c 3.3,3.2 7.3,5.7 11.6,7.4 l 0.1,-0.5 c 4.8,4.1 24.9,10.7 48,10.6 h 0.5 c 14.6,0 30.5,-2.6 44.5,-10.1 0,0 0.1,-0.3 0.3,-0.8 3.5,-1.7 6.8,-3.9 9.6,-6.6 0.1,-0.4 0.1,-0.8 0.2,-1.2 27.5,-18.8 44,-50.2 44,-83.8 z"
   id="path28"
   inkscape:connector-curvature="0"
   style="fill:url(#SVGID_2_)" />
</g>
<circle
   class="st5"
   cx="767.5"
   cy="171.2"
   r="98.900002"
   id="circle32"
   style="fill:#f5f5f5" />
<path
   class="st6"
   d="m 724.3,32.9 74,-1.1 c 1.1,0 2,0.9 2,2 v 0.9 c 0,1.1 -0.9,2 -2,2 l -74,1.1 c -1.1,0 -2,-0.9 -2,-2 v -0.9 c 0,-1.1 0.9,-2 2,-2 z"
   id="path34"
   inkscape:connector-curvature="0"
   style="fill:#dbdbdb" />
<circle
   transform="rotate(-0.85997492)"
   class="st6"
   cx="816.31549"
   cy="45.757679"
   id="ellipse36"
   r="2.9000368"
   style="fill:#dbdbdb;stroke-width:1.00001264" />
<rect
   x="680.5"
   y="309.89999"
   class="st5"
   width="162"
   height="18"
   id="rect38"
   style="fill:#f5f5f5" />
<rect
   x="644.5"
   y="345.89999"
   class="st5"
   width="234"
   height="18"
   id="rect40"
   style="fill:#f5f5f5" />
<g
   class="st0"
   id="g51"
   style="opacity:0.5"
   transform="translate(0.1)">
	
		<linearGradient
   id="SVGID_3_"
   gradientUnits="userSpaceOnUse"
   x1="503.6134"
   y1="662.03278"
   x2="788.19141"
   y2="-9.9369001"
   gradientTransform="matrix(-1,0,0,1,826.51,-1.03)">
		<stop
   offset="0"
   style="stop-color:#808080;stop-opacity:0.25"
   id="stop42" />
		<stop
   offset="0.54"
   style="stop-color:#808080;stop-opacity:0.12"
   id="stop44" />
		<stop
   offset="1"
   style="stop-color:#808080;stop-opacity:0.1"
   id="stop46" />
	</linearGradient>
	<path
   class="st7"
   d="m 15.2,0 332.5,0.8 c 7.5,0 13.6,6.1 13.6,13.7 v 0 l -1.5,621.9 c 0,7.5 -6.2,13.6 -13.7,13.6 0,0 0,0 -0.1,0 L 13.5,649.2 c -7.5,0 -13.6,-6.1 -13.6,-13.7 v 0 L 1.5,13.6 C 1.5,6.1 7.7,0 15.2,0 Z"
   id="path49"
   inkscape:connector-curvature="0"
   style="fill:url(#SVGID_3_)" />
</g>
<path
   class="st2"
   d="M 341.4,641.2 18.6,640.4 C 11.1,640.4 5,634.3 5,626.7 L 6.5,22.1 C 6.5,14.6 12.6,8.5 20.2,8.5 L 343,9.3 c 7.5,0 13.6,6.1 13.6,13.7 l -1.5,604.6 c 0,7.5 -6.2,13.6 -13.7,13.6 z"
   id="path53"
   inkscape:connector-curvature="0"
   style="fill:#ffffff" />
<path
   class="st3"
   d="m 93.6,24.5 c 2.1,13.9 13.9,24.1 27.9,24.2 L 242.4,49 c 14,0 25.9,-10.2 28,-24.1 l 64.1,0.2 c 7.3,0 13.3,6 13.3,13.3 v 0 l -1.4,573.7 c 0,7.3 -6,13.3 -13.3,13.3 v 0 l -306,-0.7 c -7.3,0 -13.3,-6 -13.3,-13.3 v 0 L 15.1,37.6 c 0,-7.3 6,-13.3 13.3,-13.3 v 0 z"
   id="path55"
   inkscape:connector-curvature="0"
   style="opacity:0.3;fill:#3f3e54;enable-background:new" />
<g
   class="st0"
   id="g66"
   style="opacity:0.5"
   transform="translate(0.1)">
	
		<linearGradient
   id="SVGID_4_"
   gradientUnits="userSpaceOnUse"
   x1="634.47998"
   y1="272.6911"
   x2="634.47998"
   y2="68.190002"
   gradientTransform="matrix(-1,0,0,1,812.88,1.01)">
		<stop
   offset="0"
   style="stop-color:#808080;stop-opacity:0.25"
   id="stop57" />
		<stop
   offset="0.54"
   style="stop-color:#808080;stop-opacity:0.12"
   id="stop59" />
		<stop
   offset="1"
   style="stop-color:#808080;stop-opacity:0.1"
   id="stop61" />
	</linearGradient>
	<path
   class="st8"
   d="m 76.4,171.2 c 0,-56.3 45.7,-102 102,-102 56.3,0 102,45.7 102,102 0,34 -16.9,65.7 -45.1,84.6 l -0.1,0.4 c -3.3,3.2 -7.3,5.7 -11.6,7.4 l -0.1,-0.5 c -4.8,4.1 -24.9,10.7 -48,10.6 H 175 c -14.6,0 -30.5,-2.6 -44.5,-10.1 0,0 -0.1,-0.3 -0.3,-0.8 -3.5,-1.7 -6.8,-3.9 -9.6,-6.6 -0.1,-0.4 -0.1,-0.8 -0.2,-1.2 -27.6,-18.8 -44,-50.2 -44,-83.8 z"
   id="path64"
   inkscape:connector-curvature="0"
   style="fill:url(#SVGID_4_)" />
</g>
<circle
   class="st5"
   cx="178.5"
   cy="171.2"
   r="98.900002"
   id="circle68"
   style="fill:#f5f5f5" />
<path
   class="st6"
   d="m 221.6,37.8 -74,-1.1 c -1.1,0 -2,-0.9 -2,-2 v -0.9 c 0,-1.1 0.9,-2 2,-2 l 74,1.1 c 1.1,0 2,0.9 2,2 v 0.9 c 0,1.1 -0.9,2 -2,2 z"
   id="path70"
   inkscape:connector-curvature="0"
   style="fill:#dbdbdb" />
<circle
   class="st6"
   cx="129"
   cy="33.400002"
   id="ellipse72"
   r="2.9000001"
   style="fill:#dbdbdb" />
<rect
   x="103.5"
   y="309.89999"
   class="st5"
   width="162"
   height="18"
   id="rect74"
   style="fill:#f5f5f5" />
<rect
   x="67.5"
   y="345.89999"
   class="st5"
   width="234"
   height="18"
   id="rect76"
   style="fill:#f5f5f5" />
<g
   class="st0"
   id="g87"
   transform="translate(2.4190705,-73.050722)"
   style="opacity:0.5">
	
		<linearGradient
   id="SVGID_5_"
   gradientUnits="userSpaceOnUse"
   x1="469.48749"
   y1="786.36761"
   x2="754.00269"
   y2="114.5225"
   gradientTransform="matrix(1,-0.00244346,0.00244346,1,-140.75,0.0597837)">
		<stop
   offset="0"
   style="stop-color:#808080;stop-opacity:0.25"
   id="stop78" />
		<stop
   offset="0.54"
   style="stop-color:#808080;stop-opacity:0.12"
   id="stop80" />
		<stop
   offset="1"
   style="stop-color:#808080;stop-opacity:0.1"
   id="stop82" />
	</linearGradient>
	<path
   class="st9"
   d="M 637.5,124 305,124.8 c -7.5,0 -13.6,6.1 -13.6,13.7 v 0 l 1.5,621.9 c 0,7.5 6.2,13.6 13.7,13.6 0,0 0,0 0.1,0 l 332.5,-0.8 c 7.5,0 13.6,-6.1 13.6,-13.7 v 0 L 651.3,137.6 C 651.2,130.1 645.1,124 637.5,124 Z"
   id="path85"
   style="fill:url(#SVGID_5_)"
   inkscape:connector-curvature="0" />
</g>
<path
   class="st2"
   d="m 312.31907,60.249278 322.8,-0.8 c 7.5,0 13.7,6.1 13.7,13.6 l 1.5,604.700002 c 0,7.5 -6.1,13.7 -13.6,13.7 l -322.8,0.8 c -7.5,0 -13.7,-6.1 -13.7,-13.6 l -1.5,-604.700002 c 0,-7.6 6.1,-13.7 13.6,-13.7 z"
   id="path89"
   inkscape:connector-curvature="0"
   style="fill:#ffffff" />
<path
   id="e707708a-3328-453c-98e2-ff60f305110c"
   class="st10"
   d="m 561.71907,75.449278 c -2.1,13.9 -13.9,24.1 -27.9,24.2 l -120.9,0.3 c -14,0 -25.9,-10.2 -28,-24.1 l -64,0.2 c -7.3,0 -13.3,6 -13.3,13.3 v 0 l 1.4,573.700002 c 0,7.3 6,13.3 13.3,13.3 v 0 l 306,-0.7 c 7.3,0 13.3,-6 13.3,-13.3 v 0 l -1.4,-573.700002 c 0,-7.3 -6,-13.3 -13.3,-13.3 v 0 z"
   inkscape:connector-curvature="0"
   style="opacity:0.4;fill:#3f3e54;enable-background:new" />
<g
   class="st0"
   id="g101"
   transform="translate(2.4190705,-73.050722)"
   style="opacity:0.5">
	
		<linearGradient
   id="SVGID_6_"
   gradientUnits="userSpaceOnUse"
   x1="601.52002"
   y1="396.79111"
   x2="601.52002"
   y2="192.19"
   gradientTransform="translate(-127.12,1.01)">
		<stop
   offset="0"
   style="stop-color:#808080;stop-opacity:0.25"
   id="stop92" />
		<stop
   offset="0.54"
   style="stop-color:#808080;stop-opacity:0.12"
   id="stop94" />
		<stop
   offset="1"
   style="stop-color:#808080;stop-opacity:0.1"
   id="stop96" />
	</linearGradient>
	<path
   class="st11"
   d="m 576.4,295.2 c 0,-56.3 -45.7,-102 -102,-102 -56.3,0 -102,45.7 -102,102 0,34 16.9,65.7 45.1,84.6 l 0.1,0.5 c 3.3,3.2 7.3,5.7 11.6,7.4 l 0.1,-0.5 c 4.8,4.1 24.9,10.7 48,10.6 h 0.5 c 14.6,0 30.5,-2.6 44.5,-10.1 0,0 0.1,-0.3 0.3,-0.8 3.5,-1.7 6.8,-3.9 9.6,-6.6 0.1,-0.4 0.1,-0.8 0.2,-1.2 27.5,-18.9 44,-50.3 44,-83.9 z"
   id="path99"
   style="fill:url(#SVGID_6_)"
   inkscape:connector-curvature="0" />
</g>
<circle
   class="st5"
   cx="476.81906"
   cy="222.14929"
   r="98.900002"
   id="circle103"
   style="fill:#f5f5f5" />
<path
   class="st6"
   d="m 433.61907,83.849278 74,-1.1 c 1.1,0 2,0.9 2,2 v 0.9 c 0,1.1 -0.9,2 -2,2 l -74,1.1 c -1.1,0 -2,-0.9 -2,-2 v -0.9 c 0,-1.1 0.9,-2 2,-2 z"
   id="path105"
   inkscape:connector-curvature="0"
   style="fill:#dbdbdb" />
<circle
   class="st6"
   cx="526.21906"
   cy="84.349274"
   r="2.9000001"
   id="circle107"
   style="fill:#dbdbdb" />
<rect
   x="389.81906"
   y="360.84927"
   class="st5"
   width="162"
   height="18"
   id="rect109"
   style="fill:#f5f5f5" />
<rect
   x="353.81906"
   y="396.84927"
   class="st5"
   width="234"
   height="18"
   id="rect111"
   style="fill:#f5f5f5" />
<path
   class="st12"
   d="m 439.01907,262.84928 c 0,0 -23.6,1.9 -17.3,44.9 3.2,3.1 7,5.5 11.2,7.1 l 13.3,-44.9 z"
   id="path113"
   inkscape:connector-curvature="0"
   style="fill:#fda57d" />
<path
   class="st12"
   d="m 515.51907,262.84928 c 0,0 23.6,1.9 17.3,44.9 -3.2,3.1 -7,5.5 -11.2,7.1 l -13.3,-44.9 z"
   id="path115"
   inkscape:connector-curvature="0"
   style="fill:#fda57d" />
<path
   class="st13"
   d="m 440.01907,192.44928 c 0,0 -11.2,32.6 -17.3,29.6 0,0 59,51 111.2,0 0,0 -9.2,-16.3 -22.4,-29.6 z"
   id="path117"
   inkscape:connector-curvature="0"
   style="fill:#333333" />
<circle
   transform="rotate(-80.781636)"
   class="st13"
   cx="-110.43795"
   cy="502.10742"
   id="ellipse119"
   r="43.900669"
   style="fill:#333333;stroke-width:1.00001526" />
<path
   class="st14"
   d="m 515.01907,262.84928 h -76.5 l -7.1,30.6 c 0,0 -4.2,14.2 1,20.4 5.2,6.2 54,20.4 89.8,1 3.1,-8.2 3.5,-17.1 1,-25.5 -4.1,-14.3 -1,-1 -1,-1 z"
   id="path121"
   inkscape:connector-curvature="0"
   style="opacity:0.1;enable-background:new" />
<path
   class="st14"
   d="m 516.11907,262.84928 h -76.5 l -7.1,30.6 c 0,0 -4.2,14.2 1,20.4 5.2,6.2 54,20.4 89.8,1 3.1,-8.2 3.5,-17.1 1,-25.5 -4.1,-14.3 -1,-1 -1,-1 z"
   id="path123"
   inkscape:connector-curvature="0"
   style="opacity:0.1;enable-background:new" />
<path
   class="st15"
   d="m 515.51907,262.84928 h -76.5 l -7.1,30.6 c 0,0 -4.2,14.2 1,20.4 5.2,6.2 54,20.4 89.8,1 3.1,-8.2 3.5,-17.1 1,-25.5 -4.1,-14.3 -1,-1 -1,-1 z"
   id="path125"
   inkscape:connector-curvature="0"
   style="fill:#a217ff" />
<path
   class="st14"
   d="m 462.41907,237.44928 h 30.6 v 0 24.5 c 0,8.4 -6.9,15.3 -15.3,15.3 v 0 c -8.4,0 -15.3,-6.9 -15.3,-15.3 v 0 z"
   id="path127"
   inkscape:connector-curvature="0"
   style="opacity:0.1;enable-background:new" />
<path
   class="st12"
   d="m 462.41907,236.34928 h 30.6 v 0 24.5 c 0,8.4 -6.9,15.3 -15.3,15.3 v 0 c -8.4,0 -15.3,-6.9 -15.3,-15.3 z"
   id="path129"
   inkscape:connector-curvature="0"
   style="fill:#fda57d" />
<path
   class="st14"
   d="m 462.51907,240.74928 c 9.9,3.7 20.7,3.7 30.6,0.1 v -3.8 h -30.6 z"
   id="path131"
   inkscape:connector-curvature="0"
   style="opacity:0.1;enable-background:new" />
<circle
   transform="rotate(-80.781636)"
   class="st12"
   cx="-119.81533"
   cy="503.62946"
   id="ellipse133"
   r="43.900669"
   style="fill:#fda57d;stroke-width:1.00001526" />
<path
   class="st13"
   d="m 435.91907,182.24928 h 83.6 c 0,0 -7.1,-33.8 -38.8,-31.6 -31.7,2.2 -44.8,31.6 -44.8,31.6 z"
   id="path135"
   inkscape:connector-curvature="0"
   style="fill:#333333" />
<ellipse
   class="st12"
   cx="434.91907"
   cy="197.04929"
   rx="4.0999999"
   ry="7.5999999"
   id="ellipse137"
   style="fill:#fda57d" />
<ellipse
   class="st12"
   cx="520.61908"
   cy="197.04929"
   rx="4.0999999"
   ry="7.5999999"
   id="ellipse139"
   style="fill:#fda57d" />
<path
   class="st14"
   d="m 435.91907,183.44928 h 83.6 c 0,0 -7.1,-33.8 -38.8,-31.6 -31.7,2.2 -44.8,31.6 -44.8,31.6 z"
   id="path141"
   inkscape:connector-curvature="0"
   style="opacity:0.1;enable-background:new" />
<path
   class="st15"
   d="m 724.7,209.9 c 0,0 -23.6,1.9 -17.3,44.9 3.2,3.1 7,5.5 11.2,7.1 L 731.9,217 Z"
   id="path143"
   inkscape:connector-curvature="0"
   style="fill:#a217ff" />
<path
   class="st15"
   d="m 801.2,209.9 c 0,0 23.6,1.9 17.3,44.9 -3.2,3.1 -7,5.5 -11.2,7.1 L 794,217 Z"
   id="path145"
   inkscape:connector-curvature="0"
   style="fill:#a217ff" />
<circle
   class="st13"
   cx="763.59998"
   cy="136.5"
   r="43.900002"
   id="circle147"
   style="fill:#333333" />
<path
   class="st15"
   d="m 801.2,209.9 h -76.5 l -7.1,30.6 c 0,0 -4.2,14.2 1,20.4 5.2,6.2 54,20.4 89.8,1 3.1,-8.2 3.5,-17.1 1,-25.5 -4.1,-14.3 -1,-1 -1,-1 z"
   id="path149"
   inkscape:connector-curvature="0"
   style="fill:#a217ff" />
<path
   class="st14"
   d="m 748.1,184.5 h 30.6 v 0 24.5 c 0,8.4 -6.9,15.3 -15.3,15.3 v 0 c -8.4,0 -15.3,-6.9 -15.3,-15.3 z"
   id="path151"
   inkscape:connector-curvature="0"
   style="opacity:0.1;enable-background:new" />
<path
   class="st16"
   d="m 748.1,183.4 h 30.6 v 0 24.5 c 0,8.4 -6.9,15.3 -15.3,15.3 v 0 c -8.4,0 -15.3,-6.9 -15.3,-15.3 z"
   id="path153"
   inkscape:connector-curvature="0"
   style="fill:#fdb797" />
<path
   class="st14"
   d="m 748.2,187.8 c 9.9,3.7 20.7,3.7 30.6,0.1 v -3.8 h -30.6 z"
   id="path155"
   inkscape:connector-curvature="0"
   style="opacity:0.1;enable-background:new" />
<circle
   class="st16"
   cx="763.59998"
   cy="146"
   r="43.900002"
   id="circle157"
   style="fill:#fdb797" />
<path
   class="st14"
   d="m 721.6,130.5 h 83.6 c 0,0 -7.1,-33.8 -38.8,-31.6 -31.7,2.2 -44.8,31.6 -44.8,31.6 z"
   id="path159"
   inkscape:connector-curvature="0"
   style="opacity:0.1;enable-background:new" />
<path
   class="st13"
   d="m 721.6,129.3 h 83.6 c 0,0 -7.1,-33.8 -38.8,-31.6 -31.7,2.2 -44.8,31.6 -44.8,31.6 z"
   id="path161"
   inkscape:connector-curvature="0"
   style="fill:#333333" />
<ellipse
   class="st16"
   cx="720.59998"
   cy="144.10001"
   rx="4.0999999"
   ry="7.5999999"
   id="ellipse163"
   style="fill:#fdb797" />
<ellipse
   class="st16"
   cx="806.29999"
   cy="144.10001"
   rx="4.0999999"
   ry="7.5999999"
   id="ellipse165"
   style="fill:#fdb797" />
<path
   class="st13"
   d="m 728.1,107 c 0.9,-3.3 2.9,-6.3 5.6,-8.4 2.1,-1.5 4.7,-2.2 7.2,-3.1 3.6,-1.3 7.1,-3 10.4,-5 3.7,-2.3 7.2,-5.1 11.3,-6.6 7,-2.6 14.9,-1.2 22.2,0.7 1.8,0.4 3.6,1 5.2,1.9 1.8,1.2 3.3,2.7 4.6,4.4 l 11.5,14.1 c 1.1,1.2 2.1,2.6 2.9,4 0.7,1.4 1.1,3 1.3,4.6 0.4,2.6 0,5.2 -1.2,7.5 -2,3.3 -6,5 -9.8,5.2 -3.8,0.2 -7.6,-1 -11.3,-2.1 -12,-3.5 -24.1,-6.8 -36.5,-8.2 -6.2,-0.8 -12.4,-1 -18.5,-0.6 -1.9,0.1 -4.5,1 -5.7,-1 -1.2,-1.7 0.3,-5.7 0.8,-7.4 z"
   id="path167"
   inkscape:connector-curvature="0"
   style="fill:#333333" />
<path
   class="st17"
   d="m 139.7,208.9 c 0,0 -23.6,1.9 -17.3,44.9 3.2,3.1 7,5.5 11.2,7.1 L 146.9,216 Z"
   id="path169"
   inkscape:connector-curvature="0"
   style="fill:#be7c5e" />
<path
   class="st17"
   d="m 216.2,208.9 c 0,0 23.6,1.9 17.3,44.9 -3.2,3.1 -7,5.5 -11.2,7.1 L 209,216 Z"
   id="path171"
   inkscape:connector-curvature="0"
   style="fill:#be7c5e" />
<path
   class="st13"
   d="m 140.7,138.5 c 0,0 -1.8,5.3 -4.4,11.4 -5.6,13.4 0.8,64.7 14.2,70.2 15.1,6.1 34.9,10.1 55.5,2.6 17.9,-6.5 23.4,-65 10.8,-79.2 -1.5,-1.7 -3,-3.3 -4.6,-4.9 z"
   id="path173"
   inkscape:connector-curvature="0"
   style="fill:#333333" />
<circle
   class="st13"
   cx="178.60001"
   cy="135.5"
   r="43.900002"
   id="circle175"
   style="fill:#333333" />
<path
   class="st14"
   d="m 215.7,208.9 h -76.5 l -7.1,30.6 c 0,0 -4.2,14.2 1,20.4 5.2,6.2 54,20.4 89.8,1 3.1,-8.2 3.5,-17.1 1,-25.5 -4.1,-14.3 -1,-1 -1,-1 z"
   id="path177"
   inkscape:connector-curvature="0"
   style="opacity:0.1;enable-background:new" />
<path
   class="st14"
   d="m 216.7,208.9 h -76.5 l -7.1,30.6 c 0,0 -4.2,14.2 1,20.4 5.2,6.2 54,20.4 89.8,1 3.1,-8.2 3.5,-17.1 1,-25.5 -4.1,-14.3 -1,-1 -1,-1 z"
   id="path179"
   inkscape:connector-curvature="0"
   style="opacity:0.1;enable-background:new" />
<path
   class="st15"
   d="m 216.2,208.9 h -76.5 l -7.1,30.6 c 0,0 -4.2,14.2 1,20.4 5.2,6.2 54,20.4 89.8,1 3.1,-8.2 3.5,-17.1 1,-25.5 -4.1,-14.3 -1,-1 -1,-1 z"
   id="path181"
   inkscape:connector-curvature="0"
   style="fill:#a217ff" />
<path
   class="st14"
   d="m 163.1,183.5 h 30.6 v 0 24.5 c 0,8.4 -6.9,15.3 -15.3,15.3 v 0 0 c -8.4,0 -15.3,-6.9 -15.3,-15.3 v 0 z"
   id="path183"
   inkscape:connector-curvature="0"
   style="opacity:0.1;enable-background:new" />
<path
   class="st17"
   d="m 163.1,182.4 h 30.6 v 0 24.5 c 0,8.4 -6.9,15.3 -15.3,15.3 v 0 0 c -8.4,0 -15.3,-6.9 -15.3,-15.3 v 0 z"
   id="path185"
   inkscape:connector-curvature="0"
   style="fill:#be7c5e" />
<path
   class="st14"
   d="m 163.2,186.8 c 9.9,3.7 20.7,3.7 30.6,0.1 v -3.8 h -30.6 z"
   id="path187"
   inkscape:connector-curvature="0"
   style="opacity:0.1;enable-background:new" />
<circle
   class="st17"
   cx="178.60001"
   cy="145"
   r="43.900002"
   id="circle189"
   style="fill:#be7c5e" />
<path
   class="st13"
   d="m 136.6,128.3 h 83.6 c 0,0 -7.1,-33.8 -38.8,-31.6 -31.7,2.2 -44.8,31.6 -44.8,31.6 z"
   id="path191"
   inkscape:connector-curvature="0"
   style="fill:#333333" />
<ellipse
   class="st17"
   cx="135.60001"
   cy="143.10001"
   rx="4.0999999"
   ry="7.5999999"
   id="ellipse193"
   style="fill:#be7c5e" />
<ellipse
   class="st17"
   cx="221.3"
   cy="143.10001"
   rx="4.0999999"
   ry="7.5999999"
   id="ellipse195"
   style="fill:#be7c5e" />
<path
   class="st14"
   d="m 136.6,129.5 h 83.6 c 0,0 -7.1,-33.8 -38.8,-31.6 -31.7,2.2 -44.8,31.6 -44.8,31.6 z"
   id="path197"
   inkscape:connector-curvature="0"
   style="opacity:0.1;enable-background:new" />
</svg>