<?xml version="1.0" encoding="UTF-8" standalone="no"?>
<svg
   xmlns:dc="http://purl.org/dc/elements/1.1/"
   xmlns:cc="http://creativecommons.org/ns#"
   xmlns:rdf="http://www.w3.org/1999/02/22-rdf-syntax-ns#"
   xmlns:svg="http://www.w3.org/2000/svg"
   xmlns="http://www.w3.org/2000/svg"
   xmlns:sodipodi="http://sodipodi.sourceforge.net/DTD/sodipodi-0.dtd"
   xmlns:inkscape="http://www.inkscape.org/namespaces/inkscape"
   id="e8c09660-db65-4061-a2dc-920e909a0453"
   data-name="Layer 1"
   width="990"
   height="395"
   viewBox="0 0 990 395"
   version="1.1"
   sodipodi:docname="homepage-image.svg"
   inkscape:version="0.92.3 (2405546, 2018-03-11)">
  <metadata
     id="metadata133">
    <rdf:RDF>
      <cc:Work
         rdf:about="">
        <dc:format>image/svg+xml</dc:format>
        <dc:type
           rdf:resource="http://purl.org/dc/dcmitype/StillImage" />
        <dc:title>web_development</dc:title>
      </cc:Work>
    </rdf:RDF>
  </metadata>
  <defs
     id="defs131" />
  <sodipodi:namedview
     pagecolor="#ffffff"
     bordercolor="#666666"
     borderopacity="1"
     objecttolerance="10"
     gridtolerance="10"
     guidetolerance="10"
     inkscape:pageopacity="0"
     inkscape:pageshadow="2"
     inkscape:window-width="1920"
     inkscape:window-height="1016"
     id="namedview129"
     showgrid="false"
     inkscape:zoom="0.70699855"
     inkscape:cx="400.37704"
     inkscape:cy="325.7014"
     inkscape:window-x="0"
     inkscape:window-y="27"
     inkscape:window-maximized="1"
     inkscape:current-layer="e8c09660-db65-4061-a2dc-920e909a0453"
     fit-margin-top="0"
     fit-margin-left="0"
     fit-margin-right="0"
     fit-margin-bottom="0" />
  <title
     id="title2">web_development</title>
  <path
     d="m 989.99996,333 c 0,15.464 -143.71656,62 -320.99996,62 -177.2834,0 -321,-46.536 -321,-62 0,-15.464 143.71659,6 321,6 177.28341,0 320.99996,-21.464 320.99996,-6 z"
     id="path8"
     inkscape:connector-curvature="0"
     style="fill:#3f3d56" />
  <path
     d="m 989.99996,333 c 0,15.464 -143.71656,62 -320.99996,62 -177.2834,0 -321,-46.536 -321,-62 0,-15.464 143.71659,6 321,6 177.28341,0 320.99996,-21.464 320.99996,-6 z"
     id="path10"
     inkscape:connector-curvature="0"
     style="opacity:0.1" />
  <ellipse
     cx="669"
     cy="333"
     rx="321"
     ry="28"
     id="ellipse12"
     style="fill:#3f3d56" />
  <path
     d="m 579.6473,105.12638 c 0,0 12.91086,20.47705 8.29993,26.02136 -4.61093,5.54431 34.59341,5.68291 34.59341,5.68291 0,0 -5.88892,-29.78793 -4.15568,-36.64328 z"
     id="path14"
     inkscape:connector-curvature="0"
     style="fill:#ffb8b8" />
  <path
     d="m 579.6473,105.12638 c 0,0 12.91086,20.47705 8.29993,26.02136 -4.61093,5.54431 34.59341,5.68291 34.59341,5.68291 0,0 -5.88892,-29.78793 -4.15568,-36.64328 z"
     id="path16"
     inkscape:connector-curvature="0"
     style="opacity:0.1" />
  <circle
     cx="600.2807"
     cy="72.063004"
     r="40.48447"
     id="circle18"
     style="fill:#9f25ff" />
  <polygon
     points="723.494,455.5 701.494,453.5 701.494,477.5 725.494,472.5 "
     id="polygon20"
     transform="translate(-5.99366,-162)"
     style="fill:#ffb8b8" />
  <path
     d="m 780.5,295.5 67,11 -17,25 c 0,0 -47,-16 -59,-16 -12,0 9,-20 9,-20 z"
     id="path22"
     inkscape:connector-curvature="0"
     style="fill:#ffb8b8" />
  <path
     d="m 628.5,247.5 c 0,0 50,-58 66,-55 16,3 23,21 23,21 l 9,89 c 0,0 -32,3 -32,0 0,-3 -6,-67 -6,-67 0,0 -47,104 -72,35 z"
     id="path24"
     inkscape:connector-curvature="0"
     style="fill:#2f2e41" />
  <path
     d="m 547.5,286.5 c 0,0 1,50 31,53 30,3 63,-20 63,-20 l 54,-25.87008 c 0,0 64,33.87008 83,24.87008 0,0 20,-21 7,-27 -13,-6 -1,0 -1,0 l -77,-40 c 0,0 -15,-4 -41,7 -26,11 -61,16 -61,16 z"
     id="path26"
     inkscape:connector-curvature="0"
     style="fill:#2f2e41" />
  <circle
     cx="597.5"
     cy="85.5"
     r="30"
     id="circle28"
     style="fill:#ffb8b8" />
  <path
     d="m 640.5,169.5 -2,42 c 0,0 1,55 -8,59 -4.55,2.02 -13.69,6.08 -22.14,10.52 -6.34,3.32 -12.29,6.84 -15.61,9.87 a 11.19431,11.19431 0 0 0 -2.25,2.61 c -4,7 -30,6 -36,1 -6,-5 -2,6 -7,8 -4.84,1.94 -11.55,-13.92 -7.44,-37.6 0.13,-0.79 0.28,-1.59 0.44,-2.4 4.59,-22.95 -2.62,-77.92 -1.51,-99.16 a 37.36888,37.36888 0 0 1 0.51,-4.84 c 3,-16 41.28,-48.56 48.44,-34.69 8.82,17.12 29.08,1.48 32.56,-6.31 20,-1 27,23 27,23 z"
     id="path30"
     inkscape:connector-curvature="0"
     style="fill:#3f3d56" />
  <path
     d="m 721.5,306.5 c 0,0 -16,6 -21,5 -5,-1 -10,3 -10,9 0,6 -6,20 3,21 9,1 46,-1 54,2 0,0 36,1 33,-14 -3,-15 -18,-14 -18,-14 0,0 -41,-2 -41,-9 z"
     id="path32"
     inkscape:connector-curvature="0"
     style="fill:#2f2e41" />
  <path
     d="m 838.5,309.5 c 0,0 2,-6 5,-6 3,0 27,4 30,3 3,-1 38,-3 32,14 -6,17 -26,19 -26,19 0,0 -36,-4 -41,-3 -5,1 -23,0 -20,-5 3,-5 22,-14 20,-22 z"
     id="path34"
     inkscape:connector-curvature="0"
     style="fill:#2f2e41" />
  <path
     d="m 747.47405,165.86345 5.48617,22.63046 a 1.41354,1.41354 0 0 1 -0.0275,0.76382 l -24.88642,77.77 a 1.4135,1.4135 0 0 1 -2.75071,-0.2712 l -3.44274,-30.29616 a 1.41351,1.41351 0 0 1 0.0605,-0.59751 l 22.843,-70.10435 a 1.4135,1.4135 0 0 1 2.71765,0.10494 z"
     id="path36"
     inkscape:connector-curvature="0"
     style="fill:#d0cde1" />
  <polygon
     points="729.5,398.155 751.45,329.775 756.515,349.191 734.565,420.104 "
     id="polygon38"
     transform="translate(-5.99366,-162)"
     style="fill:#f2f2f2" />
  <path
     d="m 634.86517,273.30006 c 0.84421,2.53261 87.79721,-0.8442 88.64141,-1.68841 a 18.32436,18.32436 0 0 0 1.85721,-3.37681 c 0.7936,-1.68841 1.51961,-3.37682 1.51961,-3.37682 l -3.37682,-27.33532 -86.1088,-3.056 c 0,0 -2.15276,23.165 -2.59176,33.76816 a 25.33138,25.33138 0 0 0 0.0591,5.0652 z"
     id="path40"
     inkscape:connector-curvature="0"
     style="fill:#d0cde1" />
  <polygon
     points="682.225,403.22 718.526,403.22 720.214,426.858 682.225,426.858 "
     id="polygon42"
     transform="translate(-5.99366,-162)"
     style="opacity:0.1" />
  <polygon
     points="647.612,420.949 647.612,410.818 669.562,410.818 669.789,410.773 668.718,420.949 "
     id="polygon44"
     transform="translate(-5.99366,-162)"
     style="opacity:0.1" />
  <path
     d="m 634.86517,273.30006 c 0.84421,2.53261 87.79721,-0.8442 88.64141,-1.68841 a 18.32436,18.32436 0 0 0 1.85721,-3.37681 h -90.55775 a 25.33138,25.33138 0 0 0 0.0591,5.06522 z"
     id="path46"
     inkscape:connector-curvature="0"
     style="opacity:0.1" />
  <path
     d="m 621.41236,0 a 22.12987,22.12987 0 0 1 -12.76894,8.778 c -8.929,2.391 -0.0729,15.80887 -0.0729,15.80887 0,0 -3.22041,-4.87923 1.42459,-10.04646 C 614.64011,9.37318 622.1151,5.84049 621.41239,0 Z"
     id="path48"
     inkscape:connector-curvature="0"
     style="fill:#9f25ff;fill-opacity:1" />
  <circle
     cx="606.98816"
     cy="27.805664"
     r="11.28256"
     id="circle50"
     style="fill:#9f25ff;fill-opacity:1" />
  <path
     d="m 621.39296,37.2623 c -9.19775,-3.47892 -24.51282,-5.2429 -32.392,-4.03709 l 1.0806,-7.8905 c 7.57488,3.91493 22.81967,5.7547 32.392,4.03709 z"
     id="path52"
     inkscape:connector-curvature="0"
     style="fill:#3f3d56" />
  <path
     d="m 603.59532,40.0867 c 0,0 -11.52728,19.17376 -38.3321,26.35147 -26.80482,7.17771 -0.219,47.45791 -0.219,47.45791 0,0 -9.66758,-14.64735 4.27659,-30.15928 13.94417,-15.51193 36.38403,-26.11707 34.27451,-43.6501 z"
     id="path54"
     inkscape:connector-curvature="0"
     style="fill:#9f25ff" />
  <path
     d="m 604.51017,38.92157 c 0,0 11.07394,26.336 23.2314,28.82592 12.15746,2.48992 11.23534,44.10345 -7.777,50.34359 0,0 13.86347,-24.39564 2.01338,-40.75671 -11.85009,-16.36107 -19.33518,-29.2947 -17.46778,-38.4128 z"
     id="path56"
     inkscape:connector-curvature="0"
     style="fill:#9f25ff" />
  <path
     d="m 608.35998,281.02 c -2.47,4.67 -5.37,9.52 -5.86,11.48 -0.33,1.33 -3.99,0.56 -9.75,-1.61 -11.55,-4.37 -31.57,-14.38 -50.25,-24.39 a 15.775,15.775 0 0 1 -2.44,-1.6 c 0.13,-0.79 0.28,-1.59 0.44,-2.4 4.59,-22.95 -2.62,-77.92 -1.51,-99.16 l 8.51,-2.84 17,16 v 68 c 0,0 44,24 47,26 1.53005,1.02 -0.58,5.67 -3.14,10.52 z"
     id="path58"
     inkscape:connector-curvature="0"
     style="opacity:0.1" />
  <path
     d="m 645.5,226.5 27,14 c 0,0 16,-17 26,-4 10,13 -29,17 -29,17 0,0 -34,-8 -35,-19 -1,-11 11,-8 11,-8 z"
     id="path60"
     inkscape:connector-curvature="0"
     style="fill:#ffb8b8" />
  <path
     d="m 600.5,263.5 16,4 c 0,0 18,-22 37,-14 19,8 -24,24 -24,24 0,0 -23,12 -32,2 -9,-10 3,-16 3,-16 z"
     id="path62"
     inkscape:connector-curvature="0"
     style="fill:#ffb8b8" />
  <path
     d="m 635.5,131.5 c 1,1 12,9 12,9 0,0 3,38 -1,46 -4,8 -7,8 -4,12 3,4 7,1 3,8 -4,7 -8,6 -5,9 3,3 2,4 2,4 l 12,10 c 0,0 -7.3623,11.72633 -16.68115,10.86317 C 628.5,239.50001 620.5,194.5 620.5,194.5 Z"
     id="path64"
     inkscape:connector-curvature="0"
     style="fill:#3f3d56" />
  <path
     d="m 547.5,155.5 -9,3 c 0,0 -24,88 4,103 28,15 59,30 60,26 1,-4 12,-20 9,-22 -3,-2 -47,-26 -47,-26 v -68 z"
     id="path66"
     inkscape:connector-curvature="0"
     style="fill:#3f3d56" />
  <polygon
     points="568.994,402 566.994,354 564.994,402 617.994,427 "
     id="polygon68"
     transform="translate(-5.99366,-162)"
     style="opacity:0.1" />
  <circle
     cx="15.999992"
     cy="66"
     r="4"
     id="circle74"
     style="fill:#6c63ff" />
  <circle
     cx="26.999989"
     cy="66"
     r="4"
     id="circle76"
     style="fill:#6c63ff" />
  <circle
     cx="37.999989"
     cy="66"
     r="4"
     id="circle78"
     style="fill:#6c63ff" />
  <rect
     x="72.999985"
     y="216.87256"
     width="58"
     height="6"
     id="rect80"
     style="opacity:0.3;fill:#6c63ff" />
  <rect
     x="72.999985"
     y="229.87256"
     width="54.864861"
     height="6"
     id="rect82"
     style="opacity:0.3;fill:#6c63ff" />
  <rect
     x="72.999985"
     y="242.87256"
     width="39.972969"
     height="6"
     id="rect84"
     style="opacity:0.3;fill:#6c63ff" />
  <g
     id="g98"
     transform="translate(-5.99366,-162)"
     style="opacity:0.3">
    <rect
       x="213.99365"
       y="378.87256"
       width="58"
       height="6"
       id="rect86"
       style="fill:#6c63ff" />
    <rect
       x="213.99365"
       y="391.87256"
       width="54.864861"
       height="6"
       id="rect88"
       style="fill:#6c63ff" />
    <rect
       x="213.99365"
       y="404.87256"
       width="39.972969"
       height="6"
       id="rect90"
       style="fill:#6c63ff" />
    <rect
       x="213.99365"
       y="378.87256"
       width="58"
       height="6"
       id="rect92"
       style="opacity:0.3;fill:#6c63ff" />
    <rect
       x="213.99365"
       y="391.87256"
       width="54.864861"
       height="6"
       id="rect94"
       style="opacity:0.3;fill:#6c63ff" />
    <rect
       x="213.99365"
       y="404.87256"
       width="39.972969"
       height="6"
       id="rect96"
       style="opacity:0.3;fill:#6c63ff" />
  </g>
  <rect
     x="347.99997"
     y="216.87256"
     width="58"
     height="6"
     id="rect100"
     style="opacity:0.3;fill:#6c63ff" />
  <rect
     x="347.99997"
     y="229.87256"
     width="54.864861"
     height="6"
     id="rect102"
     style="opacity:0.3;fill:#6c63ff" />
  <rect
     x="347.99997"
     y="242.87256"
     width="39.972969"
     height="6"
     id="rect104"
     style="opacity:0.3;fill:#6c63ff" />
  <rect
     x="200"
     y="138.87256"
     width="74"
     height="66"
     id="rect108"
     style="fill:#3f3d56" />
  <rect
     x="339.99997"
     y="138.87256"
     width="74"
     height="66"
     id="rect110"
     style="fill:#3f3d56" />
  <path
     d="M 479,332 H 0 V 55 H 479 Z M 2,330 H 477 V 57 H 2 Z"
     id="path124"
     inkscape:connector-curvature="0"
     style="fill:#2f2e41" />
  <rect
     x="0.99999207"
     y="75.064941"
     width="477"
     height="2"
     id="rect126"
     style="fill:#2f2e41" />
  <rect
     style="fill:#3f3d56"
     x="67.523247"
     y="139.96603"
     width="74"
     height="66"
     id="rect108-3" />
</svg>
