<?xml version="1.0" encoding="UTF-8" standalone="no"?>
<svg
   xmlns:dc="http://purl.org/dc/elements/1.1/"
   xmlns:cc="http://creativecommons.org/ns#"
   xmlns:rdf="http://www.w3.org/1999/02/22-rdf-syntax-ns#"
   xmlns:svg="http://www.w3.org/2000/svg"
   xmlns="http://www.w3.org/2000/svg"
   xmlns:sodipodi="http://sodipodi.sourceforge.net/DTD/sodipodi-0.dtd"
   xmlns:inkscape="http://www.inkscape.org/namespaces/inkscape"
   id="f61e7f2c-3df8-44b9-b514-d2b672d0e0d5"
   data-name="Layer 1"
   width="1100.99998"
   height="666.0509"
   viewBox="0 0 1100.99998 666.0509"
   version="1.1"
   sodipodi:docname="learn.svg"
   inkscape:version="0.92.3 (2405546, 2018-03-11)">
  <metadata
     id="metadata127">
    <rdf:RDF>
      <cc:Work
         rdf:about="">
        <dc:format>image/svg+xml</dc:format>
        <dc:type
           rdf:resource="http://purl.org/dc/dcmitype/StillImage" />
      </cc:Work>
    </rdf:RDF>
  </metadata>
  <defs
     id="defs125" />
  <sodipodi:namedview
     pagecolor="#ffffff"
     bordercolor="#666666"
     borderopacity="1"
     objecttolerance="10"
     gridtolerance="10"
     guidetolerance="10"
     inkscape:pageopacity="0"
     inkscape:pageshadow="2"
     inkscape:window-width="1920"
     inkscape:window-height="1016"
     id="namedview123"
     showgrid="false"
     inkscape:zoom="0.67938238"
     inkscape:cx="370.65482"
     inkscape:cy="506.13957"
     inkscape:window-x="0"
     inkscape:window-y="27"
     inkscape:window-maximized="1"
     inkscape:current-layer="f61e7f2c-3df8-44b9-b514-d2b672d0e0d5" />
  <title
     id="title2">dev_focus</title>
  <circle
     cx="633.92942"
     cy="214.02012"
     r="36.39575"
     fill="#2f2e41"
     id="circle4"
     style="fill:#a217ff" />
  <path
     d="M693.56939,295.60077a36.40082,36.40082,0,0,1,32.03938,53.66882,36.38708,36.38708,0,1,0-60.45438-39.98247A36.306,36.306,0,0,1,693.56939,295.60077Z"
     transform="translate(-49.50001 -116.97455)"
     fill="#2f2e41"
     id="path6"
     style="fill:#a217ff" />
  <circle
     cx="565.91872"
     cy="107.03051"
     r="106.9125"
     fill="#2f2e41"
     id="circle8"
     style="fill:#a217ff" />
  <path
     d="M531.5098,157.67094A106.89328,106.89328,0,0,1,679.677,146.461c-.87424-.83106-1.73925-1.66885-2.64768-2.47643A106.91251,106.91251,0,0,0,534.96321,303.79182c.90844.80758,1.84178,1.56849,2.76952,2.33937A106.89337,106.89337,0,0,1,531.5098,157.67094Z"
     transform="translate(-49.50001 -116.97455)"
     fill="#2f2e41"
     id="path10"
     style="fill:#a217ff" />
  <circle
     cx="565.01268"
     cy="144.17807"
     r="68.8589"
     fill="#ffb8b8"
     id="circle12" />
  <path
     d="M565.58663,282.89754s9.06039,83.35551-5.43622,92.41589,83.35551,21.74492,83.35551,21.74492-14.49662-90.60382,21.74491-114.16081Z"
     transform="translate(-49.50001 -116.97455)"
     fill="#ffb8b8"
     id="path14" />
  <path
     d="M652.5663,360.81682s26.98248-12.60018-11.87783-8.11216-72.38788-12.72672-72.38788-12.72672-11.77434-11.77849-13.58641.906,5.43623,36.24153-34.42945,39.86568-76.10721-7.2483-90.60382,19.93284-7.2483,144.9661-7.2483,144.9661,27.18114,97.85213,48.92606,112.34874,212.01292-5.43623,212.01292-5.43623L737.73388,554.709V440.54818s-7.2483-39.86568-57.98644-28.99322c0,0-32.61737-7.24831-30.8053-23.557S652.5663,360.81682,652.5663,360.81682Z"
     transform="translate(-49.50001 -116.97455)"
     fill="#d0cde1"
     id="path16" />
  <path
     d="M478.55,727.24542c1.12-4.88,1.87-7.64,1.87-7.64l-.57995-3.97-5.97-40.54-2.51-17.1c21.74-9.06,27.18-50.74,27.18-50.74l.82-.49,3.71-2.22v-.01l13.32-7.99.27-.16,5.38,3.58,10.93,7.29c38.24,28.12,77.18,27.62,101.21,23.19,14.69-2.71,23.82-6.88,23.82-6.88l26.36-8.79.82-.27.81.12,15.46,2.34.28.05,1.28.19-3.58,24.75-5.19,35.97c13.71,7.26,25.9,20.9,36.56,37.71q3.54,5.58,6.86,11.61c2.88,5.2,5.63,10.61,8.25,16.15.32.66.63,1.33.94,2,1.01,2.17,2.01,4.36,2.98005,6.56H473.75c.36-2.21.72-4.32,1.07-6.35a1.54822,1.54822,0,0,0,.04-.21c.13-.68.25-1.34.36-2C476.44,736.79541,477.62,731.28546,478.55,727.24542Z"
     transform="translate(-49.50001 -116.97455)"
     fill="#2f2e41"
     id="path18" />
  <path
     d="M467.73451,378.93759s19.93284,36.24152,12.68454,81.54343S502.164,618.13166,502.164,618.13166l21.74492-5.43623s-14.49661-94.228-10.87246-115.97289,3.62415-106.9125-14.49661-117.78495S467.73451,378.93759,467.73451,378.93759Z"
     transform="translate(-49.50001 -116.97455)"
     fill="#2f2e41"
     id="path20" />
  <path
     d="M678.47286,416.59979l7.61685,200.62583,14.49661,9.06038s20.83888-220.16727,9.96642-220.16727H688.4302A9.97043,9.97043,0,0,0,678.47286,416.59979Z"
     transform="translate(-49.50001 -116.97455)"
     fill="#2f2e41"
     id="path22" />
  <circle
     cx="462.63037"
     cy="487.56653"
     r="9.06038"
     fill="#6c63ff"
     id="circle24" />
  <circle
     cx="643.838"
     cy="496.62692"
     r="9.06038"
     fill="#6c63ff"
     id="circle26" />
  <polygon
     points="506.12 58.104 506.12 126.963 522.067 126.963 542.362 105.218 539.644 126.963 610.133 126.963 605.784 105.218 614.482 126.963 625.717 126.963 625.717 58.104 506.12 58.104"
     fill="#2f2e41"
     id="polygon28"
     style="fill:#a217ff" />
  <ellipse
     cx="495.24775"
     cy="129.68146"
     rx="5.43623"
     ry="9.96642"
     fill="#ffb8b8"
     id="ellipse30" />
  <ellipse
     cx="634.77762"
     cy="129.68146"
     rx="5.43623"
     ry="9.96642"
     fill="#ffb8b8"
     id="ellipse32" />
  <path
     d="M721.4252,612.69543s-82.44948-15.40265-87.8857,11.77849,91.50985,15.40265,91.50985,15.40265Z"
     transform="translate(-49.50001 -116.97455)"
     fill="#ffb8b8"
     id="path34" />
  <path
     d="M719.61312,426.05157S917.12944,583.70221,880.88791,621.75581,706.92859,648.937,706.92859,648.937l9.06038-45.3019,79.73135-9.06038L755.85465,554.709l-36.24153,3.62415Z"
     transform="translate(-49.50001 -116.97455)"
     fill="#d0cde1"
     id="path36" />
  <path
     d="M427.86884,688.80263l25.36906,19.93284s18.12077,56.17437,45.30191,39.86568S473.17074,674.306,473.17074,674.306l-30.80529-10.87246Z"
     transform="translate(-49.50001 -116.97455)"
     fill="#ffb8b8"
     id="path38" />
  <path
     d="M453.2379,397.05835l-25.30065,7.61381s-175.83982,130.104-183.08812,166.34551S279.27858,627.192,279.27858,627.192l157.65064,74.29513,16.30868-43.48983-74.29513-38.05361s5.43623-10.87245-16.30868-12.68453S337.265,581.89013,337.265,581.89013s43.48983-67.04682,67.04682-52.55021,30.8053,25.36907,30.8053,25.36907Z"
     transform="translate(-49.50001 -116.97455)"
     fill="#d0cde1"
     id="path40" />
  <path
     d="m 800.11671,733.45544 v 6.07 c 0.003,1.66591 -0.30524,3.31773 -0.91,4.87 -0.26855,0.69187 -0.59296,1.36074 -0.97,2 -2.42452,4.06971 -6.81282,6.56212 -11.55,6.56 H 360.88525 c -4.73717,0.002 -9.12547,-2.4903 -11.55,-6.56 -0.37701,-0.63927 -0.70142,-1.30814 -0.97,-2 -0.60472,-1.55228 -0.91337,-3.20409 -0.91,-4.87 v -6.07 c -0.002,-7.41801 6.012,-13.43198 13.43,-13.43 H 379.86 v -2.83 c -5.1e-4,-0.30949 0.25051,-0.56051 0.56,-0.56 h 13.43 c 0.30949,-5.1e-4 0.56051,0.25051 0.56,0.56 v 2.83 h 8.39 v -2.83 c -5.1e-4,-0.30949 0.25051,-0.56051 0.56,-0.56 h 13.43 c 0.30949,-5.1e-4 0.56051,0.25051 0.56,0.56 v 2.83 h 8.4 v -2.83 c -5.1e-4,-0.30949 0.25051,-0.56051 0.56,-0.56 h 13.43 c 0.30949,-5.1e-4 0.56051,0.25051 0.56,0.56 v 2.83 h 8.39 v -2.83 c -5.1e-4,-0.30949 0.25051,-0.56051 0.56,-0.56 h 13.43 c 0.30949,-5.1e-4 0.56051,0.25051 0.56,0.56 v 2.83 h 8.39 v -2.83 c -5.1e-4,-0.30949 0.25051,-0.56051 0.56,-0.56 h 13.43 c 0.30949,-5.1e-4 0.56051,0.25051 0.56,0.56 v 2.83 h 8.4 v -2.83 c -5.1e-4,-0.30949 0.25051,-0.56051 0.56,-0.56 h 13.43 c 0.30949,-5.1e-4 0.56051,0.25051 0.56,0.56 v 2.83 h 8.39 v -2.83 c -5.1e-4,-0.30949 0.25051,-0.56051 0.56,-0.56 h 105.2 c 0.30949,-5.1e-4 0.56051,0.25051 0.56,0.56 v 2.83 h 8.4 v -2.83 c -5.1e-4,-0.30949 0.25051,-0.56051 0.56,-0.56 h 13.43 c 0.30803,0.003 0.55701,0.25197 0.56,0.56 v 2.83 h 8.39 v -2.83 c -5.1e-4,-0.30949 0.25051,-0.56051 0.56,-0.56 h 13.43 c 0.30949,-5.1e-4 0.56051,0.25051 0.56,0.56 v 2.83 h 8.39 v -2.83 c -5.1e-4,-0.30949 0.25051,-0.56051 0.56,-0.56 h 13.43 c 0.30949,-5.1e-4 0.56051,0.25051 0.56,0.56 v 2.83 h 8.4 v -2.83 c -5.1e-4,-0.30949 0.25051,-0.56051 0.56,-0.56 h 13.43 c 0.30606,0.004 0.55167,0.25392 0.55,0.56 v 2.83 h 8.4 v -2.83 c -5.1e-4,-0.30949 0.25051,-0.56051 0.56,-0.56 H 738 c 0.30949,-5.1e-4 0.56051,0.25051 0.56,0.56 v 2.83 h 8.39 v -2.83 c -5.1e-4,-0.30949 0.25051,-0.56051 0.56,-0.56 h 13.43 c 0.30949,-5.1e-4 0.56051,0.25051 0.56,0.56 v 2.83 h 25.18671 c 7.41802,-0.002 13.43201,6.01198 13.43,13.43 z"
     transform="translate(-49.50001,-116.97455)"
     id="path42"
     inkscape:connector-curvature="0"
     style="fill:#3f3d56"
     sodipodi:nodetypes="ccccccccccccccccccccccccccccccccccccccccccccccccccccccccccccccccccccccccccccccccccccccccccc" />
  <rect
     x="161.44819"
     y="627.41618"
     width="732.99951"
     height="2"
     fill="#3f3d56"
     id="rect44" />
  <path
     d="M778.14246,477.82126H611.69957v-3.43053H536.22789v3.43053h-167.129a11.25861,11.25861,0,0,0-11.25861,11.25861v227.9115A11.25864,11.25864,0,0,0,369.09889,728.25H778.14246a11.25864,11.25864,0,0,0,11.25861-11.25865V489.07987A11.2586,11.2586,0,0,0,778.14246,477.82126Z"
     transform="translate(-49.50001 -116.97455)"
     fill="#3f3d56"
     id="path46" />
  <circle
     cx="525.94629"
     cy="415.80927"
     r="25"
     stroke-miterlimit="10"
     id="circle48"
     style="fill:none;stroke:#a217ff;stroke-width:2;stroke-miterlimit:10" />
  <rect
     x="59.32616"
     y="74.584488"
     width="145.99988"
     height="28.877119"
     id="rect68"
     style="fill:#d0cde1" />
  <rect
     x="59.32616"
     y="118.89593"
     width="145.99988"
     height="28.877119"
     id="rect70"
     style="fill:#d0cde1" />
  <rect
     x="59.32616"
     y="163.20735"
     width="145.99988"
     height="28.877119"
     id="rect72"
     style="fill:#d0cde1" />
  <rect
     x="59.326168"
     y="74.584503"
     width="60.39875"
     height="28.877119"
     id="rect74"
     style="opacity:0.15" />
  <rect
     y="118.8959"
     width="19.55356"
     height="28.877119"
     id="rect76"
     x="59.326069"
     style="opacity:0.15" />
  <rect
     x="59.32616"
     y="163.20735"
     width="97.333252"
     height="28.877119"
     id="rect78"
     style="opacity:0.15" />
  <rect
     x="877.45007"
     y="83.304733"
     width="146.22388"
     height="13.02985"
     id="rect80"
     style="fill:#d0cde1" />
  <rect
     x="822.67395"
     y="81.618164"
     width="28.955219"
     height="28.955219"
     id="rect82"
     style="fill:#a217ff" />
  <rect
     x="822.67395"
     y="125.051"
     width="28.955219"
     height="28.955219"
     id="rect84"
     style="fill:#a217ff" />
  <rect
     x="822.67395"
     y="168.48383"
     width="28.955219"
     height="28.955219"
     id="rect86"
     style="fill:#a217ff" />
  <path
     d="M 859.62899,104.57353 H 828.67392 V 73.617962 H 859.629 Z m -28.95508,-2 h 26.95508 V 75.617962 h -26.95507 z"
     id="path88"
     inkscape:connector-curvature="0"
     style="fill:#3f3d56" />
  <rect
     x="877.45007"
     y="126.73756"
     width="146.22388"
     height="13.02985"
     id="rect90"
     style="fill:#d0cde1" />
  <path
     d="M 859.62899,148.00616 H 828.67392 V 117.05107 H 859.629 Z m -28.95508,-2 h 26.95508 v -26.95509 h -26.95507 z"
     id="path92"
     inkscape:connector-curvature="0"
     style="fill:#3f3d56" />
  <rect
     x="877.45007"
     y="170.17039"
     width="146.22388"
     height="13.02985"
     id="rect94"
     style="fill:#d0cde1" />
  <path
     d="M 859.62899,191.43877 H 828.67392 V 160.48369 H 859.629 Z m -28.95508,-2 h 26.95508 v -26.95508 h -26.95507 z"
     id="path96"
     inkscape:connector-curvature="0"
     style="fill:#3f3d56" />
  <circle
     cx="248.32605"
     cy="89.295753"
     r="16"
     id="circle98"
     style="fill:#a217ff" />
  <circle
     cx="248.32605"
     cy="137.29575"
     r="16"
     id="circle100"
     style="fill:#a217ff" />
  <circle
     cx="248.32605"
     cy="180.29575"
     r="16"
     id="circle102"
     style="fill:#a217ff" />
  <path
     d="m 240.32606,102.29575 a 17,17 0 1 1 17,-17.000001 17.019,17.019 0 0 1 -17,17.000001 z m 0,-32.000001 a 15,15 0 1 0 15,15 15.017,15.017 0 0 0 -15,-15 z"
     id="path104"
     inkscape:connector-curvature="0"
     style="fill:#3f3d56" />
  <path
     d="m 240.32606,150.29575 a 17,17 0 1 1 17,-17 17.019,17.019 0 0 1 -17,17 z m 0,-32 a 15,15 0 1 0 15,15 15.017,15.017 0 0 0 -15,-15 z"
     id="path106"
     inkscape:connector-curvature="0"
     style="fill:#3f3d56" />
  <path
     d="m 240.32606,193.29575 a 17,17 0 1 1 17,-17 17.019,17.019 0 0 1 -17,17 z m 0,-32 a 15,15 0 1 0 15,15 15.017,15.017 0 0 0 -15,-15 z"
     id="path108"
     inkscape:connector-curvature="0"
     style="fill:#3f3d56" />
</svg>
