<?xml version="1.0" encoding="utf-8"?>
<!-- Generator: Adobe Illustrator 23.1.1, SVG Export Plug-In . SVG Version: 6.00 Build 0)  -->
<svg version="1.1" id="b4ce20e6-8fe7-43d5-87f7-68602c562594"
	 xmlns="http://www.w3.org/2000/svg" xmlns:xlink="http://www.w3.org/1999/xlink" x="0px" y="0px" viewBox="0 0 1061 742.9"
	 style="enable-background:new 0 0 1061 742.9;" xml:space="preserve">
<style type="text/css">
	.st0{fill:#3F3D56;}
	.st1{opacity:0.1;enable-background:new    ;}
	.st2{fill:#2F2E41;}
	.st3{fill:#A217FF;}
	.st4{fill:#F2F2F2;}
	.st5{fill:#FFB9B9;}
	.st6{fill:#D0CDE1;}
	.st7{fill:#A8A8A8;}
	.st8{opacity:0.2;enable-background:new    ;}
</style>
<title>task</title>
<path class="st0" d="M1038,691.4c0,10.1-29.4,19.5-80.1,27.5c-92,14.4-254.2,24-438.8,24c-286.6,0-519-23-519-51.5
	c0-3.9,4.5-7.8,12.9-11.5c9.5-4.2,24.2-8.1,43.2-11.8c39.2-7.7,97.1-14.2,167.8-19c82-5.6,181.2-9,288.2-9.1c2.3,0,4.6,0,6.9,0
	c12.9,0,25.7,0,38.3,0.1c6,0,11.9,0.1,17.8,0.2c63,0.7,122.7,2.5,176.9,5.2c2.4,0.1,4.8,0.2,7.2,0.4c0.8,0,1.6,0.1,2.5,0.1
	c0.2,0,0.4,0,0.7,0c10.6,0.6,21.1,1.2,31.2,1.8c3.3,0.2,6.7,0.4,9.9,0.6c31.9,2.1,61.3,4.5,87.8,7.2c4.5,0.5,9,0.9,13.3,1.4
	c33.5,3.7,61.7,7.8,83.4,12.4C1020,676,1038,683.5,1038,691.4z"/>
<ellipse class="st1" cx="753" cy="688.1" rx="113.1" ry="26.2"/>
<path class="st1" d="M1038,691.4c0,10.1-29.4,19.5-80.1,27.5c-38.4-4.2-65-13.2-65-23.7c0-13,41.2-23.9,95-25.9
	C1020,676,1038,683.5,1038,691.4z"/>
<path class="st1" d="M562.7,679.4c0,17.3-123.1,31.3-274.9,31.3c-150.4,0-272.6-13.7-274.9-30.8c29.2-12.7,106-23.7,211-30.9
	c20.5-0.6,41.9-0.8,63.9-0.8C439.6,648.2,562.7,662.1,562.7,679.4z"/>
<rect x="56.1" y="0" class="st0" width="456" height="683.1"/>
<rect x="83.7" y="237.2" class="st2" width="428.4" height="209.6"/>
<rect x="256.5" y="241.8" class="st0" width="423.8" height="199.5"/>
<rect x="282.5" y="271.2" class="st3" width="94.7" height="34"/>
<rect x="305.9" y="331" class="st3" width="348.4" height="9.2"/>
<rect x="305.9" y="354.9" class="st3" width="348.4" height="9.2"/>
<rect x="305.9" y="378.8" class="st3" width="348.4" height="9.2"/>
<rect x="305.9" y="402.7" class="st3" width="348.4" height="9.2"/>
<rect x="86.4" y="77.2" class="st4" width="94.7" height="34"/>
<rect x="109.9" y="137" class="st4" width="348.4" height="9.2"/>
<rect x="109.9" y="160.9" class="st4" width="348.4" height="9.2"/>
<rect x="109.9" y="184.8" class="st4" width="348.4" height="9.2"/>
<rect x="109.9" y="208.7" class="st4" width="348.4" height="9.2"/>
<rect x="90.1" y="468" class="st4" width="94.7" height="34"/>
<rect x="113.5" y="527.7" class="st4" width="348.4" height="9.2"/>
<rect x="113.5" y="551.6" class="st4" width="348.4" height="9.2"/>
<rect x="113.5" y="575.5" class="st4" width="348.4" height="9.2"/>
<rect x="113.5" y="599.4" class="st4" width="348.4" height="9.2"/>
<path class="st5" d="M723.1,140.5c0,0,18.9,24.2,16.5,41.4s39-23.6,39-23.6s-14.2-29.5-6.5-43.7S723.1,140.5,723.1,140.5z"/>
<path class="st2" d="M789.2,630.8c0,0,24.8,27.2,20.7,33.1s-76.8,28.4-85.1,27.2s-12.4-7.1-9.5-8.9s21.9-11.8,21.9-11.8l15.9-18.3
	c0,0,11.8-6.5,11.8-10S789.2,630.8,789.2,630.8z"/>
<path class="st5" d="M747.3,660.9c0,0-9.5,15.4-11.2,15.9s8.9,21.9,8.9,21.9l24.8-7.7l13.6-11.2l-3-15.4L747.3,660.9z"/>
<path class="st6" d="M721.9,367.9l-11.8,52.6c0,0-40.8,91.6-12.4,107.5l62,118.7l33.1-14.8l-55.5-121.7l25.4-140L721.9,367.9z"/>
<path class="st1" d="M721.9,367.9l-11.8,52.6c0,0-40.8,91.6-12.4,107.5l62,118.7l33.1-14.8l-55.5-121.7l25.4-140L721.9,367.9z"/>
<path class="st6" d="M726,376.2h-6c-0.5,18.2,0.5,36.3,3,54.3c4.1,30.1,14.8,99.2,14.8,99.2s-1.2,13,2.4,17.1s4.1-1.2,4.7,8.3
	s6.2,75.2,6.2,75.2s3.8,13.4-0.3,16.4s-12.4,18.9-6.5,21.3s46.7,5.3,48.4,3.5s0-112.8,0-112.8s-1.2-22.4-2.4-23.6
	s-6.5-17.1-4.7-20.7c1.8-3.5,0.6-14.2,0.6-15.9s-5.3,0-0.6-7.7s5.3-69.1,5.3-69.1s25.4-39,17.7-49L726,376.2z"/>
<circle class="st5" cx="739.6" cy="110.3" r="39"/>
<path class="st2" d="M778.6,151.7c0,0-23.6,5.9-33.1,20.1l-8.3,1.8v8.3c0,0-15.4,49-11.8,70.3s0,62.6-5.9,73.8s-7.7,13.6-4.7,18.3
	s7.1,20.7,4.1,27.8s0,14.2,27.2,15.9s65.6,1.8,65.6-7.7s-2.4-36,0-43.1s3.5-11.8,2.4-18.3s2.4-79.2,2.4-79.2S817,167,778.6,151.7z"
	/>
<path class="st5" d="M723.1,334.2l-32.5,48.4c0,0-34.3,31.3-21.9,45.5c12.4,14.2,44.9-41.4,44.9-41.4l35.4-40.2L723.1,334.2z"/>
<path class="st2" d="M743.7,679.8c0,0-1.2-7.7-5.3-7.7S706.5,691,706.5,691s-36.6,4.1-22.4,11.8s101,8.9,101.6,5.9s1.8-32.1-2.4-32
	s-37.2,6.6-37.2,6.6L743.7,679.8z"/>
<path class="st2" d="M742.4,90.2c-1.4,0.7-2.9,1-4.5,1c-1.6,0.1-3.5,0-4.3-1.4c-0.4-0.9-0.6-1.9-0.5-2.8c-0.7-5.1-5.4-8.7-10.5-8
	c-0.1,0-0.3,0-0.4,0.1c0.2,2,0.8,3.8,1.7,5.5c-3.5,1.2-7.4,0.7-10.4-1.4l-0.6,8c-2.1,1-4.8,1.2-6.7-0.2s-2-4.9,0.1-5.9
	c-2.6-0.5-5.7-1.7-5.9-4.3c-0.2-2.4,2.4-4.2,2.8-6.5c0.4-1.9-0.7-4,0.1-5.8c1-2.4,4.5-3,5.3-5.5c0.4-1.3-0.2-2.6,0-3.9
	c0.3-3.4,4.6-4.8,8.1-4.6s7.2,1.1,10.1-0.7c1.4-0.9,2.4-2.3,3.6-3.4c3.5-3,8.6-3.5,12.6-1.1c1.4,0.9,2.6,2,4.1,2.6
	c3.2,1.1,6.4-1,9.7-1.4c2.4-0.4,4.9,0.3,6.8,2c1.8,1.7,2.2,4.5,1,6.7c1.9-0.3,4-0.6,5.8,0.1s3.2,2.9,2.4,4.7c-0.3,0.5-0.6,1-0.7,1.5
	c-0.2,1,0.8,1.9,1.8,2.2s2.1,0.2,3.1,0.6c4,1.5,3.1,8,6.3,10.9c1.1,0.8,2.2,1.5,3.5,2.1c3.3,2.3,4.5,6.5,3,10.2
	c-0.6,1.4-1.7,2.8-1.6,4.3c0.2,2.2,2.5,3.4,4.1,4.8c3.1,2.8,4,7.3,2.2,11.1c-1.5,3.1-4.7,5.5-5.1,9c-0.1,1.5,0.3,3,0.3,4.5
	c-0.2,2.8-1.7,5.4-4,7c-2.3,1.6-4.9,2.7-7.7,3.2c-1.3,0.3-2.8,0.8-3.1,2.1c-0.4,1.5,1.3,2.9,1.2,4.5c-0.1,0.7-0.5,1.3-1,1.7
	c-2.3,1.8-6,0.3-7.4-2.3s-1.2-5.7-1-8.6l0.8-10.6c0.2-3.3,0.2-7.2-2.5-9.1c-3-2.1-7.3-0.4-10.7-1.8c-3.5-1.5-4.8-5.9-4.6-9.7
	s1.2-7.6,0.6-11.4c-0.8-4.7-4.9-7.8-9.1-4.8C744.6,84.3,745.3,88.5,742.4,90.2z"/>
<path class="st1" d="M775,180c0,0-23.6,9.5-23.6,29.5s1.2,46.7-3,55.5s-7.7,11.8-5.3,18.9s6.5,5.9,0,11.2s-5.9-3.5-6.5,5.3
	s5.9,10,0,14.2s-21.3,20.7-14.8,26s23.6,22.4,29.5,15.9s8.9-23,17.1-21.9s9.5,1.8,8.3-4.1s-6.5-5.9,0.6-7.7s10,2.4,7.7-3.5
	s-4.1-8.3,0.6-14.8s7.1-8.3,6.5-14.8s13-65,13-65S809.3,175.3,775,180z"/>
<path class="st1" d="M768.5,178.9c0,0-23.6,9.5-23.6,29.5s1.2,46.7-3,55.5s-7.7,11.8-5.3,18.9s6.5,5.9,0,11.2s-5.9-3.5-6.5,5.3
	s5.9,10,0,14.2s-21.3,20.7-14.8,26s23.6,22.4,29.5,15.9s8.9-23,17.1-21.9s9.5,1.8,8.3-4.1s-6.5-5.9,0.6-7.7s10,2.4,7.7-3.5
	s-4.1-8.3,0.6-14.8s7.1-8.3,6.5-14.8s13-65,13-65S802.8,174.1,768.5,178.9z"/>
<path class="st2" d="M771.5,177.1c0,0-23.6,9.5-23.6,29.5s1.2,46.7-3,55.5s-7.7,11.8-5.3,18.9s6.5,5.9,0,11.2s-5.9-3.5-6.5,5.3
	s5.9,10,0,14.2s-21.3,20.7-14.8,26s23.6,22.4,29.5,15.9s8.9-23,17.1-21.9s9.5,1.8,8.3-4.1s-6.5-5.9,0.6-7.7s10,2.4,7.7-3.5
	s-4.1-8.3,0.6-14.8s7.1-8.3,6.5-14.8s13-65,13-65S805.8,172.4,771.5,177.1z"/>
<path class="st7" d="M952.2,679.4c0,0,10.3-0.3,13.4-2.5s15.8-4.8,16.6-1.3s15.5,17.6,3.8,17.7s-27-1.8-30.1-3.7
	S952.2,679.4,952.2,679.4z"/>
<path class="st8" d="M986.3,692c-11.6,0.1-27-1.8-30.1-3.7c-2.4-1.4-3.3-6.6-3.6-9c-0.2,0-0.3,0-0.3,0s0.7,8.3,3.7,10.2
	c3.1,1.9,18.5,3.8,30.1,3.7c3.4,0,4.5-1.2,4.4-3C990,691.3,988.7,692,986.3,692z"/>
</svg>
