<?xml version="1.0" encoding="UTF-8" standalone="no"?>
<!-- Generator: Adobe Illustrator 23.1.1, SVG Export Plug-In . SVG Version: 6.00 Build 0)  -->

<svg
   xmlns:dc="http://purl.org/dc/elements/1.1/"
   xmlns:cc="http://creativecommons.org/ns#"
   xmlns:rdf="http://www.w3.org/1999/02/22-rdf-syntax-ns#"
   xmlns:svg="http://www.w3.org/2000/svg"
   xmlns="http://www.w3.org/2000/svg"
   xmlns:sodipodi="http://sodipodi.sourceforge.net/DTD/sodipodi-0.dtd"
   xmlns:inkscape="http://www.inkscape.org/namespaces/inkscape"
   version="1.1"
   id="b4ce20e6-8fe7-43d5-87f7-68602c562594"
   x="0px"
   y="0px"
   viewBox="0 0 1064.657 721.98472"
   xml:space="preserve"
   sodipodi:docname="post.svg"
   width="1064.657"
   height="721.98474"
   inkscape:version="0.92.3 (2405546, 2018-03-11)"><metadata
   id="metadata87"><rdf:RDF><cc:Work
       rdf:about=""><dc:format>image/svg+xml</dc:format><dc:type
         rdf:resource="http://purl.org/dc/dcmitype/StillImage" /><dc:title>task</dc:title></cc:Work></rdf:RDF></metadata><defs
   id="defs85" /><sodipodi:namedview
   pagecolor="#ffffff"
   bordercolor="#666666"
   borderopacity="1"
   objecttolerance="10"
   gridtolerance="10"
   guidetolerance="10"
   inkscape:pageopacity="0"
   inkscape:pageshadow="2"
   inkscape:window-width="1920"
   inkscape:window-height="1016"
   id="namedview83"
   showgrid="false"
   fit-margin-top="0"
   fit-margin-left="0"
   fit-margin-right="0"
   fit-margin-bottom="0"
   inkscape:zoom="0.63534794"
   inkscape:cx="276.8157"
   inkscape:cy="282.87369"
   inkscape:window-x="0"
   inkscape:window-y="27"
   inkscape:window-maximized="1"
   inkscape:current-layer="b4ce20e6-8fe7-43d5-87f7-68602c562594" />
<style
   type="text/css"
   id="style2">
	.st0{fill:#3F3D56;}
	.st1{opacity:0.1;enable-background:new    ;}
	.st2{fill:#2F2E41;}
	.st3{fill:#A217FF;}
	.st4{fill:#F2F2F2;}
	.st5{fill:#FFB9B9;}
	.st6{fill:#D0CDE1;}
	.st7{fill:#A8A8A8;}
	.st8{opacity:0.2;enable-background:new    ;}
</style>
<title
   id="title4">task</title>
<path
   class="st0"
   d="m 1064.657,673.43071 c 0,9.52225 -30.1579,18.38454 -82.16498,25.92691 -94.37175,13.57627 -260.75326,22.62712 -450.11223,22.62712 C 238.39126,721.98474 0,700.30042 0,673.43071 c 0,-3.6769 4.6160097,-7.35381 13.232561,-10.84216 9.744909,-3.95974 24.823875,-7.63665 44.313693,-11.125 40.210574,-7.25953 99.603236,-13.38771 172.125876,-17.91313 84.11395,-5.27966 185.87132,-8.48517 295.62977,-8.57945 2.3593,0 4.71859,0 7.07789,0 13.23256,0 26.36254,0 39.28737,0.0943 6.15468,0 12.20678,0.0943 18.25888,0.18856 64.62414,0.65996 125.8632,2.35699 181.46047,4.90254 2.46187,0.0943 4.92374,0.18856 7.38562,0.37712 0.82062,0 1.64124,0.0943 2.56444,0.0943 0.20516,0 0.41032,0 0.71805,0 10.87327,0.56568 21.64396,1.13135 32.00433,1.69703 3.38508,0.18856 6.87273,0.37712 10.15523,0.56568 32.72238,1.97987 62.88031,4.24259 90.06347,6.78814 4.61601,0.47139 9.23202,0.84851 13.64288,1.31991 34.36363,3.48835 63.29062,7.35382 85.55007,11.69068 32.7224,6.22246 51.1864,13.29343 51.1864,20.74152 z"
   id="path6"
   inkscape:connector-curvature="0"
   style="fill:#3f3d56;stroke-width:0.98341334" />
<ellipse
   class="st1"
   cx="775.06415"
   cy="667.56506"
   rx="123.49193"
   ry="31.39052"
   id="ellipse8"
   style="opacity:0.1;stroke-width:1.14376438;enable-background:new" />

<path
   class="st1"
   d="m 577.10379,662.11716 c 0,16.31038 -126.27351,29.50953 -281.9869,29.50953 -154.27731,0 -279.627613,-12.91631 -281.986907,-29.03814 29.952774,-11.97351 108.732677,-22.34428 216.439567,-29.13241 21.02849,-0.56568 42.98018,-0.75424 65.54734,-0.75424 155.71339,0 281.9869,13.10487 281.9869,29.41526 z"
   id="path12"
   inkscape:connector-curvature="0"
   style="opacity:0.1;stroke-width:0.98341334;enable-background:new" />
<rect
   x="57.443676"
   y="21.581139"
   class="st0"
   width="467.75565"
   height="644.02435"
   id="rect14"
   style="fill:#3f3d56;stroke-width:0.98341334" />
<rect
   x="85.755203"
   y="245.21248"
   class="st2"
   width="439.44412"
   height="197.61017"
   id="rect16"
   style="fill:#2f2e41;stroke-width:0.98341334" />
<rect
   x="263.00998"
   y="249.54935"
   class="st0"
   width="434.72552"
   height="188.08792"
   id="rect18"
   style="fill:#3f3d56;stroke-width:0.98341334;opacity:1" />
<rect
   x="289.68024"
   y="277.26758"
   class="st3"
   width="97.141357"
   height="32.055084"
   id="rect20"
   style="fill:#a217ff;stroke-width:0.98341334" />
<rect
   x="313.6835"
   y="333.64682"
   class="st3"
   width="357.38171"
   height="8.6737289"
   id="rect22"
   style="fill:#a217ff;stroke-width:0.98341334" />
<rect
   x="313.6835"
   y="356.17966"
   class="st3"
   width="357.38171"
   height="8.6737289"
   id="rect24"
   style="fill:#a217ff;stroke-width:0.98341334" />
<rect
   x="313.6835"
   y="378.71249"
   class="st3"
   width="357.38171"
   height="8.6737289"
   id="rect26"
   style="fill:#a217ff;stroke-width:0.98341334" />
<rect
   x="313.6835"
   y="401.24536"
   class="st3"
   width="357.38171"
   height="8.6737289"
   id="rect28"
   style="fill:#a217ff;stroke-width:0.98341334" />
<rect
   x="88.524811"
   y="94.365036"
   class="st4"
   width="97.141357"
   height="32.055084"
   id="rect30"
   style="fill:#f2f2f2;stroke-width:0.98341334" />
<rect
   x="112.63064"
   y="150.74426"
   class="st4"
   width="357.38171"
   height="8.6737289"
   id="rect32"
   style="fill:#f2f2f2;stroke-width:0.98341334" />
<rect
   x="112.63064"
   y="173.2771"
   class="st4"
   width="357.38171"
   height="8.6737289"
   id="rect34"
   style="fill:#f2f2f2;stroke-width:0.98341334" />
<rect
   x="112.63064"
   y="195.80995"
   class="st4"
   width="357.38171"
   height="8.6737289"
   id="rect36"
   style="fill:#f2f2f2;stroke-width:0.98341334" />
<rect
   x="112.63064"
   y="218.34277"
   class="st4"
   width="357.38171"
   height="8.6737289"
   id="rect38"
   style="fill:#f2f2f2;stroke-width:0.98341334" />
<rect
   x="92.32019"
   y="462.80997"
   class="st4"
   width="97.141357"
   height="32.055084"
   id="rect40"
   style="fill:#f2f2f2;stroke-width:0.98341334" />
<rect
   x="116.32345"
   y="519.09491"
   class="st4"
   width="357.38171"
   height="8.6737289"
   id="rect42"
   style="fill:#f2f2f2;stroke-width:0.98341334" />
<rect
   x="116.32345"
   y="541.62769"
   class="st4"
   width="357.38171"
   height="8.6737289"
   id="rect44"
   style="fill:#f2f2f2;stroke-width:0.98341334" />
<rect
   x="116.32345"
   y="564.16058"
   class="st4"
   width="357.38171"
   height="8.6737289"
   id="rect46"
   style="fill:#f2f2f2;stroke-width:0.98341334" />
<rect
   x="116.32345"
   y="586.69342"
   class="st4"
   width="357.38171"
   height="8.6737289"
   id="rect48"
   style="fill:#f2f2f2;stroke-width:0.98341334" />
<path
   class="st5"
   d="m 745.80825,96.741262 c 0,0 20.76724,25.249758 18.13014,43.195858 -2.63711,17.9461 42.85304,-24.62373 42.85304,-24.62373 0,0 -15.60291,-30.779651 -7.14218,-45.595617 8.46072,-14.815968 -53.841,27.023489 -53.841,27.023489 z"
   id="path50"
   inkscape:connector-curvature="0"
   style="fill:#ffb9b9;stroke-width:1.07072842" />
<path
   class="st2"
   d="m 818.43866,608.30953 c 0,0 27.25014,28.37989 22.74507,34.53582 -4.50506,6.15593 -84.38752,29.63193 -93.50752,28.37989 -9.12001,-1.25206 -13.62507,-7.40799 -10.43856,-9.28607 3.1865,-1.87809 24.06363,-12.31186 24.06363,-12.31186 l 17.47085,-19.09382 c 0,0 12.96579,-6.78196 12.96579,-10.43379 0,-3.65182 26.70074,-11.79017 26.70074,-11.79017 z"
   id="path52"
   inkscape:connector-curvature="0"
   style="fill:#2f2e41;stroke-width:1.07072842" />
<path
   class="st5"
   d="m 772.39912,639.71522 c 0,0 -10.43856,16.06802 -12.30652,16.5897 -1.86796,0.52169 9.77928,22.84999 9.77928,22.84999 l 27.25014,-8.03401 14.94362,-11.68584 -3.29639,-16.06802 z"
   id="path54"
   inkscape:connector-curvature="0"
   style="fill:#ffb9b9;stroke-width:1.07072842" />
<path
   class="st6"
   d="m 744.4897,334.00544 -12.96579,54.88168 c 0,0 -44.83087,95.57344 -13.62507,112.16315 l 68.12535,123.84898 36.37013,-15.442 -60.98316,-126.97911 27.90941,-146.07293 z"
   id="path56"
   inkscape:connector-curvature="0"
   style="fill:#d0cde1;stroke-width:1.07072842" />
<path
   class="st1"
   d="m 744.4897,334.00544 -12.96579,54.88168 c 0,0 -44.83087,95.57344 -13.62507,112.16315 l 68.12535,123.84898 36.37013,-15.442 -60.98316,-126.97911 27.90941,-146.07293 z"
   id="path58"
   inkscape:connector-curvature="0"
   style="opacity:0.1;stroke-width:1.07072842;enable-background:new" />
<path
   class="st6"
   d="m 748.99476,342.66547 h -6.59278 c -0.54939,18.98949 0.5494,37.87463 3.29639,56.65544 4.50507,31.40568 16.26219,103.5031 16.26219,103.5031 0,0 -1.31856,13.56392 2.6371,17.84177 3.95567,4.27785 4.50507,-1.25206 5.16434,8.66004 0.65928,9.91209 6.81254,78.46202 6.81254,78.46202 0,0 4.17542,13.98128 -0.32964,17.11141 -4.50506,3.13013 -13.62507,19.71984 -7.14217,22.22394 6.48289,2.50412 51.31376,5.52992 53.18171,3.65183 1.86796,-1.87808 0,-117.69304 0,-117.69304 0,0 -1.31855,-23.37167 -2.63711,-24.62372 -1.31855,-1.25206 -7.14217,-17.84177 -5.16433,-21.59793 1.97783,-3.65182 0.65928,-14.81597 0.65928,-16.58971 0,-1.77375 -5.82363,0 -0.65928,-8.03401 5.16433,-8.03402 5.82361,-72.09743 5.82361,-72.09743 0,0 27.90942,-40.69175 19.44869,-51.12552 z"
   id="path60"
   inkscape:connector-curvature="0"
   style="fill:#d0cde1;stroke-width:1.07072842" />
<ellipse
   class="st5"
   cx="763.93842"
   cy="65.231255"
   id="circle62"
   rx="42.853039"
   ry="40.691742"
   style="fill:#ffb9b9;stroke-width:1.07072842" />
<path
   class="st2"
   d="m 806.79143,108.42711 c 0,0 -25.93159,6.15593 -36.37015,20.97189 l -9.12,1.87808 v 8.66004 c 0,0 -16.92146,51.12553 -12.96579,73.34947 3.95566,22.22396 0,65.31547 -6.4829,77.00131 -6.4829,11.68584 -8.46073,14.18994 -5.16434,19.09382 3.29639,4.90388 7.80145,21.59792 4.50507,29.00591 -3.29639,7.40798 0,14.81597 29.88724,16.58971 29.88724,1.77374 72.081,1.87808 72.081,-8.03401 0,-9.9121 -2.63711,-37.56161 0,-44.96959 2.63712,-7.40799 3.84579,-12.31186 2.63712,-19.09382 -1.20868,-6.78196 2.63711,-82.63554 2.63711,-82.63554 0,0 0.5494,-75.8536 -41.64436,-91.81727 z"
   id="path64"
   inkscape:connector-curvature="0"
   style="fill:#2f2e41;stroke-width:1.07072842" />
<path
   class="st5"
   d="m 745.80825,298.8436 -35.71086,50.4995 c 0,0 -37.6887,32.65774 -24.06363,47.4737 13.62506,14.81597 49.33593,-43.19585 49.33593,-43.19585 l 38.89737,-41.94381 z"
   id="path66"
   inkscape:connector-curvature="0"
   style="fill:#ffb9b9;stroke-width:1.07072842" />
<path
   class="st2"
   d="m 768.44345,659.43506 c 0,0 -1.31856,-8.03401 -5.82362,-8.03401 -4.50506,0 -35.05159,19.71985 -35.05159,19.71985 0,0 -40.21592,4.27784 -24.61303,12.31186 15.60291,8.03401 110.97839,9.28607 111.63767,6.15593 0.65927,-3.13013 1.97783,-33.49243 -2.63712,-33.38811 -4.61494,0.10436 -40.8752,6.8863 -40.8752,6.8863 z"
   id="path68"
   inkscape:connector-curvature="0"
   style="fill:#2f2e41;stroke-width:1.07072842" />
<path
   class="st2"
   d="m 767.01501,44.259349 c -1.53831,0.730365 -3.18651,1.043379 -4.94458,1.043379 -1.75807,0.104338 -3.84579,0 -4.72482,-1.46073 -0.43952,-0.939041 -0.65928,-1.982418 -0.5494,-2.921459 -0.76916,-5.321228 -5.93349,-9.077389 -11.53736,-8.347024 -0.10988,0 -0.32963,0 -0.43951,0.104338 0.21976,2.086756 0.87903,3.964836 1.86796,5.738579 -3.84579,1.252054 -8.1311,0.730365 -11.42749,-1.460729 l -0.65927,8.347025 c -2.30747,1.043377 -5.27423,1.252053 -7.36194,-0.208677 -2.08771,-1.460729 -2.19759,-5.112552 0.10989,-6.15593 -2.85688,-0.521689 -6.26315,-1.773743 -6.4829,-4.486526 -0.21976,-2.504107 2.63711,-4.382187 3.07663,-6.781957 0.43951,-1.982418 -0.76917,-4.173511 0.10988,-6.051592 1.09879,-2.504108 4.94458,-3.130134 5.82361,-5.73858 0.43952,-1.356391 -0.21975,-2.712783 0,-4.069174 0.32965,-3.5474855 5.05447,-5.0082145 8.90025,-4.7995395 3.84579,0.208675 7.91134,1.147716 11.09784,-0.730364 1.53831,-0.93904 2.63711,-2.39977 3.95567,-3.547486 3.84577,-3.130134 9.44964,-3.651823 13.84482,-1.147716 1.53831,0.939041 2.85687,2.086756 4.50506,2.712783 3.51616,1.147716 7.0323,-1.043378 10.65833,-1.460729 2.63711,-0.417351 5.3841,0.313014 7.47181,2.086756 1.97783,1.773743 2.41734,4.695202 1.09879,6.9906325 2.08771,-0.313013 4.39519,-0.626027 6.37302,0.104338 1.97783,0.730364 3.51615,3.025797 2.6371,4.903877 -0.32963,0.521689 -0.65927,1.043379 -0.76915,1.565068 -0.21976,1.043377 0.87903,1.982417 1.97783,2.295431 1.0988,0.313013 2.30747,0.208676 3.40627,0.626027 4.39518,1.565067 3.40627,8.347024 6.92241,11.37282 1.20868,0.834703 2.41736,1.565067 3.84579,2.191094 3.62603,2.399769 4.94458,6.781958 3.29638,10.642457 -0.65927,1.460729 -1.86794,2.921458 -1.75806,4.486525 0.21975,2.295433 2.74698,3.547486 4.50505,5.008215 3.40627,2.921458 4.39519,7.616656 2.41736,11.581495 -1.6482,3.234473 -5.16435,5.738578 -5.60386,9.390404 -0.10988,1.565072 0.32964,3.130134 0.32964,4.695207 -0.21976,2.921458 -1.86795,5.634239 -4.39518,7.303639 -2.52724,1.669411 -5.38411,2.81712 -8.46073,3.338811 -1.42843,0.313015 -3.07663,0.834706 -3.40627,2.191091 -0.43952,1.565073 1.42844,3.025796 1.31856,4.695207 -0.10989,0.730367 -0.5494,1.356385 -1.0988,1.773735 -2.52724,1.87809 -6.59278,0.31302 -8.13109,-2.399764 -1.53832,-2.712782 -1.31856,-5.947254 -1.09879,-8.973051 l 0.87903,-11.059803 c 0.21976,-3.443149 0.21976,-7.512327 -2.74699,-9.494741 -3.29639,-2.191102 -8.02121,-0.417353 -11.75711,-1.878087 -3.84579,-1.565062 -5.27423,-6.155928 -5.05446,-10.120765 0.21975,-3.964837 1.31854,-7.929673 0.65928,-11.89451 -0.87905,-4.903877 -5.38411,-8.138348 -9.99905,-5.008215 3.7359,-1.147715 4.50507,3.234473 1.31855,5.008215 z"
   id="path70"
   inkscape:connector-curvature="0"
   style="fill:#2f2e41;stroke-width:1.07072842" />
<path
   class="st1"
   d="m 802.83576,137.9547 c 0,0 -25.93159,9.9121 -25.93159,30.77966 0,20.86755 1.31856,48.72575 -3.29639,57.90748 -4.61493,9.18172 -8.46072,12.31186 -5.82361,19.71985 2.63711,7.40797 7.14217,6.15593 0,11.68583 -7.14217,5.5299 -6.48289,-3.65183 -7.14217,5.5299 -0.65928,9.18173 6.48289,10.43379 0,14.81597 -6.4829,4.38219 -23.40435,21.59792 -16.26218,27.12782 7.14218,5.52992 25.93158,23.37168 32.41448,16.58972 6.4829,-6.78196 9.77928,-23.99769 18.7894,-22.84997 9.01013,1.14771 10.43856,1.87807 9.12002,-4.27786 -1.31856,-6.15593 -7.14218,-6.15593 0.65926,-8.034 7.80146,-1.87809 10.98796,2.5041 8.46074,-3.65183 -2.52723,-6.15593 -4.50507,-8.66004 0.65928,-15.442 5.16433,-6.78196 7.80144,-8.66003 7.14217,-15.44199 -0.65928,-6.78196 14.28435,-67.81958 14.28435,-67.81958 0,0 4.61493,-51.54287 -33.07376,-46.639 z"
   id="path72"
   inkscape:connector-curvature="0"
   style="opacity:0.1;stroke-width:1.07072842;enable-background:new" />
<path
   class="st1"
   d="m 795.69358,136.80698 c 0,0 -25.93158,9.9121 -25.93158,30.77966 0,20.86757 1.31856,48.72575 -3.29639,57.90748 -4.61493,9.18173 -8.46072,12.31186 -5.82361,19.71985 2.63711,7.40799 7.14217,6.15593 0,11.68583 -7.14218,5.5299 -6.4829,-3.65183 -7.14218,5.5299 -0.65928,9.18174 6.4829,10.43379 0,14.81598 -6.48289,4.38218 -23.40434,21.59792 -16.26217,27.12783 7.14217,5.5299 25.93157,23.37166 32.41448,16.5897 6.48289,-6.78195 9.77928,-23.99769 18.7894,-22.84997 9.01013,1.14772 10.43856,1.87807 9.12001,-4.27786 -1.31856,-6.15593 -7.14217,-6.15593 0.65927,-8.034 7.80145,-1.87809 10.98796,2.5041 8.46073,-3.65183 -2.52722,-6.15593 -4.50506,-8.66004 0.65928,-15.442 5.16434,-6.78196 7.80146,-8.66003 7.14218,-15.44199 -0.65928,-6.78196 14.28434,-67.81958 14.28434,-67.81958 0,0 4.61494,-51.64721 -33.07376,-46.639 z"
   id="path74"
   inkscape:connector-curvature="0"
   style="opacity:0.1;stroke-width:1.07072842;enable-background:new" />
<path
   class="st2"
   d="m 798.98997,134.92891 c 0,0 -25.93158,9.91209 -25.93158,30.77965 0,20.86756 1.31856,48.72575 -3.29639,57.90748 -4.61494,9.18173 -8.46072,12.31186 -5.82361,19.71985 2.6371,7.40798 7.14217,6.15593 0,11.68583 -7.14218,5.5299 -6.4829,-3.65182 -7.14218,5.5299 -0.65928,9.18173 6.4829,10.43379 0,14.81597 -6.48289,4.38219 -23.40435,21.59793 -16.26217,27.12783 7.14217,5.52991 25.93157,23.37167 32.41448,16.58971 6.48289,-6.78196 9.77928,-23.99769 18.7894,-22.84998 9.01013,1.14772 10.43856,1.87809 9.12001,-4.27784 -1.31856,-6.15593 -7.14217,-6.15593 0.65927,-8.03402 7.80145,-1.87808 10.98796,2.50411 8.46073,-3.65182 -2.52722,-6.15593 -4.50506,-8.66003 0.65928,-15.44199 5.16434,-6.78196 7.80145,-8.66004 7.14218,-15.442 -0.65928,-6.78196 14.28434,-67.81957 14.28434,-67.81957 0,0 4.61494,-51.54288 -33.07376,-46.639 z"
   id="path76"
   inkscape:connector-curvature="0"
   style="fill:#2f2e41;stroke-width:1.07072842" />


</svg>