<?xml version="1.0" encoding="utf-8"?>
<!-- Generator: Adobe Illustrator 23.1.1, SVG Export Plug-In . SVG Version: 6.00 Build 0)  -->
<svg version="1.1" id="dee5f091-7f82-4933-86d1-b20eda2269df"
	 xmlns="http://www.w3.org/2000/svg" xmlns:xlink="http://www.w3.org/1999/xlink" x="0px" y="0px" viewBox="0 0 945.8 774"
	 style="enable-background:new 0 0 945.8 774;" xml:space="preserve">
<style type="text/css">
	.st0{opacity:0.5;}
	.st1{fill:url(#SVGID_1_);}
	.st2{fill:#FFFFFF;}
	.st3{opacity:0.3;fill:#3F3E54;enable-background:new    ;}
	.st4{fill:url(#SVGID_2_);}
	.st5{fill:#F5F5F5;}
	.st6{fill:#DBDBDB;}
	.st7{fill:url(#SVGID_3_);}
	.st8{fill:url(#SVGID_4_);}
	.st9{fill:url(#SVGID_5_);}
	.st10{opacity:0.4;fill:#3F3E54;enable-background:new    ;}
	.st11{fill:url(#SVGID_6_);}
	.st12{fill:#FDA57D;}
	.st13{fill:#333333;}
	.st14{opacity:0.1;enable-background:new    ;}
	.st15{fill:#A217FF;}
	.st16{fill:#FDB797;}
	.st17{fill:#BE7C5E;}
</style>
<title>swipe profiles1</title>
<g class="st0">
	
		<linearGradient id="SVGID_1_" gradientUnits="userSpaceOnUse" x1="762.8887" y1="663.0845" x2="1047.3955" y2="-8.7405" gradientTransform="matrix(1 -2.443458e-03 2.443458e-03 1 -140.75 5.978370e-02)">
		<stop  offset="0" style="stop-color:#808080;stop-opacity:0.25"/>
		<stop  offset="0.54" style="stop-color:#808080;stop-opacity:0.12"/>
		<stop  offset="1" style="stop-color:#808080;stop-opacity:0.1"/>
	</linearGradient>
	<path class="st1" d="M930.6,0L598.1,0.8c-7.5,0-13.6,6.1-13.6,13.7l0,0l1.5,621.9c0,7.5,6.2,13.6,13.7,13.6c0,0,0,0,0.1,0
		l332.5-0.8c7.5,0,13.6-6.1,13.6-13.7l0,0l-1.5-621.9C944.2,6.1,938.1,0,930.6,0z"/>
</g>
<path class="st2" d="M602.9,9.3l322.8-0.8c7.5,0,13.7,6.1,13.7,13.6l1.5,604.7c0,7.5-6.1,13.7-13.6,13.7l-322.8,0.8
	c-7.5,0-13.7-6.1-13.7-13.6L589.3,23C589.3,15.4,595.4,9.3,602.9,9.3z"/>
<path class="st3" d="M852.3,24.5c-2.1,13.9-13.9,24.1-27.9,24.2L703.5,49c-14,0-25.9-10.2-28-24.1l-64,0.2c-7.3,0-13.3,6-13.3,13.3
	l0,0l1.4,573.7c0,7.3,6,13.3,13.3,13.3l0,0l306-0.7c7.3,0,13.3-6,13.3-13.3l0,0l-1.4-573.7c0-7.3-6-13.3-13.3-13.3l0,0L852.3,24.5z"
	/>
<g class="st0">
	
		<linearGradient id="SVGID_2_" gradientUnits="userSpaceOnUse" x1="894.52" y1="272.6911" x2="894.52" y2="68.19" gradientTransform="matrix(1 0 0 1 -127.12 1.01)">
		<stop  offset="0" style="stop-color:#808080;stop-opacity:0.25"/>
		<stop  offset="0.54" style="stop-color:#808080;stop-opacity:0.12"/>
		<stop  offset="1" style="stop-color:#808080;stop-opacity:0.1"/>
	</linearGradient>
	<path class="st4" d="M869.4,171.2c0-56.3-45.7-102-102-102s-102,45.7-102,102c0,34,16.9,65.7,45.1,84.6l0.1,0.4
		c3.3,3.2,7.3,5.7,11.6,7.4l0.1-0.5c4.8,4.1,24.9,10.7,48,10.6h0.5c14.6,0,30.5-2.6,44.5-10.1c0,0,0.1-0.3,0.3-0.8
		c3.5-1.7,6.8-3.9,9.6-6.6c0.1-0.4,0.1-0.8,0.2-1.2C852.9,236.2,869.4,204.8,869.4,171.2z"/>
</g>
<circle class="st5" cx="767.4" cy="171.2" r="98.9"/>
<path class="st6" d="M724.2,32.9l74-1.1c1.1,0,2,0.9,2,2v0.9c0,1.1-0.9,2-2,2l-74,1.1c-1.1,0-2-0.9-2-2v-0.9
	C722.2,33.8,723.1,32.9,724.2,32.9z"/>
<ellipse transform="matrix(0.9999 -1.500902e-02 1.500902e-02 0.9999 -0.4108 12.2633)" class="st6" cx="816.8" cy="33.5" rx="2.9" ry="2.9"/>
<rect x="680.4" y="309.9" class="st5" width="162" height="18"/>
<rect x="644.4" y="345.9" class="st5" width="234" height="18"/>
<g class="st0">
	
		<linearGradient id="SVGID_3_" gradientUnits="userSpaceOnUse" x1="503.6134" y1="662.0328" x2="788.1914" y2="-9.9369" gradientTransform="matrix(-1 0 0 1 826.51 -1.03)">
		<stop  offset="0" style="stop-color:#808080;stop-opacity:0.25"/>
		<stop  offset="0.54" style="stop-color:#808080;stop-opacity:0.12"/>
		<stop  offset="1" style="stop-color:#808080;stop-opacity:0.1"/>
	</linearGradient>
	<path class="st7" d="M15.2,0l332.5,0.8c7.5,0,13.6,6.1,13.6,13.7l0,0l-1.5,621.9c0,7.5-6.2,13.6-13.7,13.6c0,0,0,0-0.1,0
		l-332.5-0.8c-7.5,0-13.6-6.1-13.6-13.7l0,0L1.5,13.6C1.5,6.1,7.7,0,15.2,0z"/>
</g>
<path class="st2" d="M341.3,641.2l-322.8-0.8c-7.5,0-13.6-6.1-13.6-13.7L6.4,22.1c0-7.5,6.1-13.6,13.7-13.6l322.8,0.8
	c7.5,0,13.6,6.1,13.6,13.7L355,627.6C355,635.1,348.8,641.2,341.3,641.2z"/>
<path class="st3" d="M93.5,24.5c2.1,13.9,13.9,24.1,27.9,24.2L242.3,49c14,0,25.9-10.2,28-24.1l64.1,0.2c7.3,0,13.3,6,13.3,13.3l0,0
	l-1.4,573.7c0,7.3-6,13.3-13.3,13.3l0,0l-306-0.7c-7.3,0-13.3-6-13.3-13.3l0,0L15,37.6c0-7.3,6-13.3,13.3-13.3l0,0L93.5,24.5z"/>
<g class="st0">
	
		<linearGradient id="SVGID_4_" gradientUnits="userSpaceOnUse" x1="634.48" y1="272.6911" x2="634.48" y2="68.19" gradientTransform="matrix(-1 0 0 1 812.88 1.01)">
		<stop  offset="0" style="stop-color:#808080;stop-opacity:0.25"/>
		<stop  offset="0.54" style="stop-color:#808080;stop-opacity:0.12"/>
		<stop  offset="1" style="stop-color:#808080;stop-opacity:0.1"/>
	</linearGradient>
	<path class="st8" d="M76.4,171.2c0-56.3,45.7-102,102-102s102,45.7,102,102c0,34-16.9,65.7-45.1,84.6l-0.1,0.4
		c-3.3,3.2-7.3,5.7-11.6,7.4l-0.1-0.5c-4.8,4.1-24.9,10.7-48,10.6H175c-14.6,0-30.5-2.6-44.5-10.1c0,0-0.1-0.3-0.3-0.8
		c-3.5-1.7-6.8-3.9-9.6-6.6c-0.1-0.4-0.1-0.8-0.2-1.2C92.8,236.2,76.4,204.8,76.4,171.2z"/>
</g>
<circle class="st5" cx="178.4" cy="171.2" r="98.9"/>
<path class="st6" d="M221.5,37.8l-74-1.1c-1.1,0-2-0.9-2-2v-0.9c0-1.1,0.9-2,2-2l74,1.1c1.1,0,2,0.9,2,2v0.9
	C223.5,36.9,222.6,37.8,221.5,37.8z"/>
<ellipse class="st6" cx="128.9" cy="33.4" rx="2.9" ry="2.9"/>
<rect x="103.4" y="309.9" class="st5" width="162" height="18"/>
<rect x="67.4" y="345.9" class="st5" width="234" height="18"/>
<g class="st0">
	
		<linearGradient id="SVGID_5_" gradientUnits="userSpaceOnUse" x1="469.4875" y1="786.3676" x2="754.0027" y2="114.5225" gradientTransform="matrix(1 -2.443458e-03 2.443458e-03 1 -140.75 5.978370e-02)">
		<stop  offset="0" style="stop-color:#808080;stop-opacity:0.25"/>
		<stop  offset="0.54" style="stop-color:#808080;stop-opacity:0.12"/>
		<stop  offset="1" style="stop-color:#808080;stop-opacity:0.1"/>
	</linearGradient>
	<path class="st9" d="M637.5,124L305,124.8c-7.5,0-13.6,6.1-13.6,13.7l0,0l1.5,621.9c0,7.5,6.2,13.6,13.7,13.6c0,0,0,0,0.1,0
		l332.5-0.8c7.5,0,13.6-6.1,13.6-13.7l0,0l-1.5-621.9C651.2,130.1,645.1,124,637.5,124z"/>
</g>
<path class="st2" d="M309.9,133.3l322.8-0.8c7.5,0,13.7,6.1,13.7,13.6l1.5,604.7c0,7.5-6.1,13.7-13.6,13.7l-322.8,0.8
	c-7.5,0-13.7-6.1-13.7-13.6L296.3,147C296.3,139.4,302.4,133.3,309.9,133.3z"/>
<path id="e707708a-3328-453c-98e2-ff60f305110c" class="st10" d="M559.3,148.5c-2.1,13.9-13.9,24.1-27.9,24.2L410.5,173
	c-14,0-25.9-10.2-28-24.1l-64,0.2c-7.3,0-13.3,6-13.3,13.3l0,0l1.4,573.7c0,7.3,6,13.3,13.3,13.3l0,0l306-0.7
	c7.3,0,13.3-6,13.3-13.3l0,0l-1.4-573.7c0-7.3-6-13.3-13.3-13.3l0,0L559.3,148.5z"/>
<g class="st0">
	
		<linearGradient id="SVGID_6_" gradientUnits="userSpaceOnUse" x1="601.52" y1="396.7911" x2="601.52" y2="192.19" gradientTransform="matrix(1 0 0 1 -127.12 1.01)">
		<stop  offset="0" style="stop-color:#808080;stop-opacity:0.25"/>
		<stop  offset="0.54" style="stop-color:#808080;stop-opacity:0.12"/>
		<stop  offset="1" style="stop-color:#808080;stop-opacity:0.1"/>
	</linearGradient>
	<path class="st11" d="M576.4,295.2c0-56.3-45.7-102-102-102s-102,45.7-102,102c0,34,16.9,65.7,45.1,84.6l0.1,0.5
		c3.3,3.2,7.3,5.7,11.6,7.4l0.1-0.5c4.8,4.1,24.9,10.7,48,10.6h0.5c14.6,0,30.5-2.6,44.5-10.1c0,0,0.1-0.3,0.3-0.8
		c3.5-1.7,6.8-3.9,9.6-6.6c0.1-0.4,0.1-0.8,0.2-1.2C559.9,360.2,576.4,328.8,576.4,295.2z"/>
</g>
<circle class="st5" cx="474.4" cy="295.2" r="98.9"/>
<path class="st6" d="M431.2,156.9l74-1.1c1.1,0,2,0.9,2,2v0.9c0,1.1-0.9,2-2,2l-74,1.1c-1.1,0-2-0.9-2-2v-0.9
	C429.2,157.8,430.1,156.9,431.2,156.9z"/>
<circle class="st6" cx="523.8" cy="157.4" r="2.9"/>
<rect x="387.4" y="433.9" class="st5" width="162" height="18"/>
<rect x="351.4" y="469.9" class="st5" width="234" height="18"/>
<path class="st12" d="M436.6,335.9c0,0-23.6,1.9-17.3,44.9c3.2,3.1,7,5.5,11.2,7.1l13.3-44.9L436.6,335.9z"/>
<path class="st12" d="M513.1,335.9c0,0,23.6,1.9,17.3,44.9c-3.2,3.1-7,5.5-11.2,7.1L505.9,343L513.1,335.9z"/>
<path class="st13" d="M437.6,265.5c0,0-11.2,32.6-17.3,29.6c0,0,59,51,111.2,0c0,0-9.2-16.3-22.4-29.6H437.6z"/>
<ellipse transform="matrix(0.1602 -0.9871 0.9871 0.1602 140.2229 689.8123)" class="st13" cx="475.5" cy="262.5" rx="43.9" ry="43.9"/>
<path class="st14" d="M512.6,335.9h-76.5l-7.1,30.6c0,0-4.2,14.2,1,20.4s54,20.4,89.8,1c3.1-8.2,3.5-17.1,1-25.5c-4.1-14.3-1-1-1-1
	L512.6,335.9z"/>
<path class="st14" d="M513.7,335.9h-76.5l-7.1,30.6c0,0-4.2,14.2,1,20.4s54,20.4,89.8,1c3.1-8.2,3.5-17.1,1-25.5c-4.1-14.3-1-1-1-1
	L513.7,335.9z"/>
<path class="st15" d="M513.1,335.9h-76.5l-7.1,30.6c0,0-4.2,14.2,1,20.4s54,20.4,89.8,1c3.1-8.2,3.5-17.1,1-25.5c-4.1-14.3-1-1-1-1
	L513.1,335.9z"/>
<path class="st14" d="M460,310.5h30.6l0,0V335c0,8.4-6.9,15.3-15.3,15.3l0,0c-8.4,0-15.3-6.9-15.3-15.3l0,0L460,310.5L460,310.5z"/>
<path class="st12" d="M460,309.4h30.6l0,0v24.5c0,8.4-6.9,15.3-15.3,15.3l0,0c-8.4,0-15.3-6.9-15.3-15.3L460,309.4L460,309.4z"/>
<path class="st14" d="M460.1,313.8c9.9,3.7,20.7,3.7,30.6,0.1v-3.8h-30.6V313.8z"/>
<ellipse transform="matrix(0.1602 -0.9871 0.9871 0.1602 130.8456 697.7905)" class="st12" cx="475.5" cy="272" rx="43.9" ry="43.9"/>
<path class="st13" d="M433.5,255.3h83.6c0,0-7.1-33.8-38.8-31.6S433.5,255.3,433.5,255.3z"/>
<ellipse class="st12" cx="432.5" cy="270.1" rx="4.1" ry="7.6"/>
<ellipse class="st12" cx="518.2" cy="270.1" rx="4.1" ry="7.6"/>
<path class="st14" d="M433.5,256.5h83.6c0,0-7.1-33.8-38.8-31.6S433.5,256.5,433.5,256.5z"/>
<path class="st15" d="M724.6,209.9c0,0-23.6,1.9-17.3,44.9c3.2,3.1,7,5.5,11.2,7.1l13.3-44.9L724.6,209.9z"/>
<path class="st15" d="M801.1,209.9c0,0,23.6,1.9,17.3,44.9c-3.2,3.1-7,5.5-11.2,7.1L793.9,217L801.1,209.9z"/>
<circle class="st13" cx="763.5" cy="136.5" r="43.9"/>
<path class="st15" d="M801.1,209.9h-76.5l-7.1,30.6c0,0-4.2,14.2,1,20.4s54,20.4,89.8,1c3.1-8.2,3.5-17.1,1-25.5c-4.1-14.3-1-1-1-1
	L801.1,209.9z"/>
<path class="st14" d="M748,184.5h30.6l0,0V209c0,8.4-6.9,15.3-15.3,15.3l0,0c-8.4,0-15.3-6.9-15.3-15.3V184.5L748,184.5z"/>
<path class="st16" d="M748,183.4h30.6l0,0v24.5c0,8.4-6.9,15.3-15.3,15.3l0,0c-8.4,0-15.3-6.9-15.3-15.3V183.4L748,183.4z"/>
<path class="st14" d="M748.1,187.8c9.9,3.7,20.7,3.7,30.6,0.1v-3.8h-30.6V187.8z"/>
<circle class="st16" cx="763.5" cy="146" r="43.9"/>
<path class="st14" d="M721.5,130.5h83.6c0,0-7.1-33.8-38.8-31.6S721.5,130.5,721.5,130.5z"/>
<path class="st13" d="M721.5,129.3h83.6c0,0-7.1-33.8-38.8-31.6S721.5,129.3,721.5,129.3z"/>
<ellipse class="st16" cx="720.5" cy="144.1" rx="4.1" ry="7.6"/>
<ellipse class="st16" cx="806.2" cy="144.1" rx="4.1" ry="7.6"/>
<path class="st13" d="M728,107c0.9-3.3,2.9-6.3,5.6-8.4c2.1-1.5,4.7-2.2,7.2-3.1c3.6-1.3,7.1-3,10.4-5c3.7-2.3,7.2-5.1,11.3-6.6
	c7-2.6,14.9-1.2,22.2,0.7c1.8,0.4,3.6,1,5.2,1.9c1.8,1.2,3.3,2.7,4.6,4.4L806,105c1.1,1.2,2.1,2.6,2.9,4c0.7,1.4,1.1,3,1.3,4.6
	c0.4,2.6,0,5.2-1.2,7.5c-2,3.3-6,5-9.8,5.2s-7.6-1-11.3-2.1c-12-3.5-24.1-6.8-36.5-8.2c-6.2-0.8-12.4-1-18.5-0.6
	c-1.9,0.1-4.5,1-5.7-1C726,112.7,727.5,108.7,728,107z"/>
<path class="st17" d="M139.6,208.9c0,0-23.6,1.9-17.3,44.9c3.2,3.1,7,5.5,11.2,7.1l13.3-44.9L139.6,208.9z"/>
<path class="st17" d="M216.1,208.9c0,0,23.6,1.9,17.3,44.9c-3.2,3.1-7,5.5-11.2,7.1L208.9,216L216.1,208.9z"/>
<path class="st13" d="M140.6,138.5c0,0-1.8,5.3-4.4,11.4c-5.6,13.4,0.8,64.7,14.2,70.2c15.1,6.1,34.9,10.1,55.5,2.6
	c17.9-6.5,23.4-65,10.8-79.2c-1.5-1.7-3-3.3-4.6-4.9L140.6,138.5z"/>
<circle class="st13" cx="178.5" cy="135.5" r="43.9"/>
<path class="st14" d="M215.6,208.9h-76.5l-7.1,30.6c0,0-4.2,14.2,1,20.4s54,20.4,89.8,1c3.1-8.2,3.5-17.1,1-25.5c-4.1-14.3-1-1-1-1
	L215.6,208.9z"/>
<path class="st14" d="M216.6,208.9h-76.5l-7.1,30.6c0,0-4.2,14.2,1,20.4s54,20.4,89.8,1c3.1-8.2,3.5-17.1,1-25.5c-4.1-14.3-1-1-1-1
	L216.6,208.9z"/>
<path class="st15" d="M216.1,208.9h-76.5l-7.1,30.6c0,0-4.2,14.2,1,20.4s54,20.4,89.8,1c3.1-8.2,3.5-17.1,1-25.5c-4.1-14.3-1-1-1-1
	L216.1,208.9z"/>
<path class="st14" d="M163,183.5h30.6l0,0V208c0,8.4-6.9,15.3-15.3,15.3l0,0l0,0c-8.4,0-15.3-6.9-15.3-15.3l0,0V183.5L163,183.5z"/>
<path class="st17" d="M163,182.4h30.6l0,0v24.5c0,8.4-6.9,15.3-15.3,15.3l0,0l0,0c-8.4,0-15.3-6.9-15.3-15.3l0,0V182.4L163,182.4z"
	/>
<path class="st14" d="M163.1,186.8c9.9,3.7,20.7,3.7,30.6,0.1v-3.8h-30.6V186.8z"/>
<circle class="st17" cx="178.5" cy="145" r="43.9"/>
<path class="st13" d="M136.5,128.3h83.6c0,0-7.1-33.8-38.8-31.6S136.5,128.3,136.5,128.3z"/>
<ellipse class="st17" cx="135.5" cy="143.1" rx="4.1" ry="7.6"/>
<ellipse class="st17" cx="221.2" cy="143.1" rx="4.1" ry="7.6"/>
<path class="st14" d="M136.5,129.5h83.6c0,0-7.1-33.8-38.8-31.6S136.5,129.5,136.5,129.5z"/>
</svg>
